<?xml version="1.0" encoding="UTF-8" standalone="no"?>
<!DOCTYPE svg PUBLIC "-//W3C//DTD SVG 1.1//EN"
 "http://www.w3.org/Graphics/SVG/1.1/DTD/svg11.dtd">
<!-- Generated by graphviz version 2.40.1 (20161225.0304)
 -->
<!-- Title: tree Pages: 1 -->
<svg width="720pt" height="2492pt"
 viewBox="0.00 0.00 719.53 2492.00" xmlns="http://www.w3.org/2000/svg" xmlns:xlink="http://www.w3.org/1999/xlink">
<g id="graph0" class="graph" transform="scale(1 1) rotate(0) translate(4 2488)">
<title>tree</title>
<polygon fill="#ffffff" stroke="transparent" points="-4,4 -4,-2488 715.5278,-2488 715.5278,4 -4,4"/>
<!-- Carnivora -->
<g id="node1" class="node">
<title>Carnivora</title>
<ellipse fill="none" stroke="#000000" cx="172.9611" cy="-810" rx="45.4355" ry="18"/>
<text text-anchor="middle" x="172.9611" y="-805.8" font-family="Times,serif" font-size="14.00" fill="#000000">Carnivora</text>
</g>
<!-- Feliformia -->
<g id="node2" class="node">
<title>Feliformia</title>
<ellipse fill="none" stroke="#000000" cx="60.9611" cy="-738" rx="47.3736" ry="18"/>
<text text-anchor="middle" x="60.9611" y="-733.8" font-family="Times,serif" font-size="14.00" fill="#000000">Feliformia</text>
</g>
<!-- Carnivora&#45;&gt;Feliformia -->
<g id="edge1" class="edge">
<title>Carnivora&#45;&gt;Feliformia</title>
<path fill="none" stroke="#000000" d="M148.9343,-794.5542C132.9516,-784.2797 111.7436,-770.6459 94.1553,-759.3392"/>
<polygon fill="#000000" stroke="#000000" points="95.6391,-756.1322 85.3346,-753.6687 91.8537,-762.0204 95.6391,-756.1322"/>
</g>
<!-- Caniformia -->
<g id="node26" class="node">
<title>Caniformia</title>
<ellipse fill="none" stroke="#000000" cx="176.9611" cy="-738" rx="50.2637" ry="18"/>
<text text-anchor="middle" x="176.9611" y="-733.8" font-family="Times,serif" font-size="14.00" fill="#000000">Caniformia</text>
</g>
<!-- Carnivora&#45;&gt;Caniformia -->
<g id="edge21" class="edge">
<title>Carnivora&#45;&gt;Caniformia</title>
<path fill="none" stroke="#000000" d="M173.9704,-791.8314C174.3982,-784.131 174.9069,-774.9743 175.3824,-766.4166"/>
<polygon fill="#000000" stroke="#000000" points="178.8779,-766.592 175.9381,-756.4133 171.8887,-766.2037 178.8779,-766.592"/>
</g>
<!-- Felidae -->
<g id="node19" class="node">
<title>Felidae</title>
<ellipse fill="none" stroke="#000000" cx="60.9611" cy="-666" rx="36.2732" ry="18"/>
<text text-anchor="middle" x="60.9611" y="-661.8" font-family="Times,serif" font-size="14.00" fill="#000000">Felidae</text>
</g>
<!-- Feliformia&#45;&gt;Felidae -->
<g id="edge10" class="edge">
<title>Feliformia&#45;&gt;Felidae</title>
<path fill="none" stroke="#000000" d="M60.9611,-719.8314C60.9611,-712.131 60.9611,-702.9743 60.9611,-694.4166"/>
<polygon fill="#000000" stroke="#000000" points="64.4612,-694.4132 60.9611,-684.4133 57.4612,-694.4133 64.4612,-694.4132"/>
</g>
<!-- Scrotifera -->
<g id="node3" class="node">
<title>Scrotifera</title>
<ellipse fill="none" stroke="#000000" cx="207.9611" cy="-954" rx="44.9423" ry="18"/>
<text text-anchor="middle" x="207.9611" y="-949.8" font-family="Times,serif" font-size="14.00" fill="#000000">Scrotifera</text>
</g>
<!-- Ferae -->
<g id="node4" class="node">
<title>Ferae</title>
<ellipse fill="none" stroke="#000000" cx="188.9611" cy="-882" rx="29.9931" ry="18"/>
<text text-anchor="middle" x="188.9611" y="-877.8" font-family="Times,serif" font-size="14.00" fill="#000000">Ferae</text>
</g>
<!-- Scrotifera&#45;&gt;Ferae -->
<g id="edge2" class="edge">
<title>Scrotifera&#45;&gt;Ferae</title>
<path fill="none" stroke="#000000" d="M203.1666,-935.8314C201.0806,-927.9266 198.5896,-918.4872 196.2804,-909.7365"/>
<polygon fill="#000000" stroke="#000000" points="199.624,-908.6894 193.6882,-899.9134 192.8557,-910.4755 199.624,-908.6894"/>
</g>
<!-- Ferae&#45;&gt;Carnivora -->
<g id="edge20" class="edge">
<title>Ferae&#45;&gt;Carnivora</title>
<path fill="none" stroke="#000000" d="M184.9236,-863.8314C183.2124,-856.131 181.1776,-846.9743 179.2759,-838.4166"/>
<polygon fill="#000000" stroke="#000000" points="182.6389,-837.4159 177.0529,-828.4133 175.8056,-838.9344 182.6389,-837.4159"/>
</g>
<!-- Primatomorpha -->
<g id="node5" class="node">
<title>Primatomorpha</title>
<ellipse fill="none" stroke="#000000" cx="618.9611" cy="-738" rx="65.2477" ry="18"/>
<text text-anchor="middle" x="618.9611" y="-733.8" font-family="Times,serif" font-size="14.00" fill="#000000">Primatomorpha</text>
</g>
<!-- Primates -->
<g id="node6" class="node">
<title>Primates</title>
<ellipse fill="none" stroke="#000000" cx="618.9611" cy="-666" rx="41.1093" ry="18"/>
<text text-anchor="middle" x="618.9611" y="-661.8" font-family="Times,serif" font-size="14.00" fill="#000000">Primates</text>
</g>
<!-- Primatomorpha&#45;&gt;Primates -->
<g id="edge3" class="edge">
<title>Primatomorpha&#45;&gt;Primates</title>
<path fill="none" stroke="#000000" d="M618.9611,-719.8314C618.9611,-712.131 618.9611,-702.9743 618.9611,-694.4166"/>
<polygon fill="#000000" stroke="#000000" points="622.4612,-694.4132 618.9611,-684.4133 615.4612,-694.4133 622.4612,-694.4132"/>
</g>
<!-- Haplorrhini -->
<g id="node34" class="node">
<title>Haplorrhini</title>
<ellipse fill="none" stroke="#000000" cx="618.9611" cy="-594" rx="51.2329" ry="18"/>
<text text-anchor="middle" x="618.9611" y="-589.8" font-family="Times,serif" font-size="14.00" fill="#000000">Haplorrhini</text>
</g>
<!-- Primates&#45;&gt;Haplorrhini -->
<g id="edge22" class="edge">
<title>Primates&#45;&gt;Haplorrhini</title>
<path fill="none" stroke="#000000" d="M618.9611,-647.8314C618.9611,-640.131 618.9611,-630.9743 618.9611,-622.4166"/>
<polygon fill="#000000" stroke="#000000" points="622.4612,-622.4132 618.9611,-612.4133 615.4612,-622.4133 622.4612,-622.4132"/>
</g>
<!-- Simiiformes -->
<g id="node7" class="node">
<title>Simiiformes</title>
<ellipse fill="none" stroke="#000000" cx="618.9611" cy="-522" rx="53.6643" ry="18"/>
<text text-anchor="middle" x="618.9611" y="-517.8" font-family="Times,serif" font-size="14.00" fill="#000000">Simiiformes</text>
</g>
<!-- Catarrhini -->
<g id="node8" class="node">
<title>Catarrhini</title>
<ellipse fill="none" stroke="#000000" cx="618.9611" cy="-450" rx="45.92" ry="18"/>
<text text-anchor="middle" x="618.9611" y="-445.8" font-family="Times,serif" font-size="14.00" fill="#000000">Catarrhini</text>
</g>
<!-- Simiiformes&#45;&gt;Catarrhini -->
<g id="edge4" class="edge">
<title>Simiiformes&#45;&gt;Catarrhini</title>
<path fill="none" stroke="#000000" d="M618.9611,-503.8314C618.9611,-496.131 618.9611,-486.9743 618.9611,-478.4166"/>
<polygon fill="#000000" stroke="#000000" points="622.4612,-478.4132 618.9611,-468.4133 615.4612,-478.4133 622.4612,-478.4132"/>
</g>
<!-- Hominoidea -->
<g id="node28" class="node">
<title>Hominoidea</title>
<ellipse fill="none" stroke="#000000" cx="618.9611" cy="-378" rx="53.6471" ry="18"/>
<text text-anchor="middle" x="618.9611" y="-373.8" font-family="Times,serif" font-size="14.00" fill="#000000">Hominoidea</text>
</g>
<!-- Catarrhini&#45;&gt;Hominoidea -->
<g id="edge15" class="edge">
<title>Catarrhini&#45;&gt;Hominoidea</title>
<path fill="none" stroke="#000000" d="M618.9611,-431.8314C618.9611,-424.131 618.9611,-414.9743 618.9611,-406.4166"/>
<polygon fill="#000000" stroke="#000000" points="622.4612,-406.4132 618.9611,-396.4133 615.4612,-406.4133 622.4612,-406.4132"/>
</g>
<!-- Animalia -->
<g id="node9" class="node">
<title>Animalia</title>
<ellipse fill="none" stroke="#000000" cx="414.9611" cy="-2322" rx="43.0301" ry="18"/>
<text text-anchor="middle" x="414.9611" y="-2317.8" font-family="Times,serif" font-size="14.00" fill="#000000">Animalia</text>
</g>
<!-- Bilateria -->
<g id="node10" class="node">
<title>Bilateria</title>
<ellipse fill="none" stroke="#000000" cx="414.9611" cy="-2250" rx="40.6075" ry="18"/>
<text text-anchor="middle" x="414.9611" y="-2245.8" font-family="Times,serif" font-size="14.00" fill="#000000">Bilateria</text>
</g>
<!-- Animalia&#45;&gt;Bilateria -->
<g id="edge5" class="edge">
<title>Animalia&#45;&gt;Bilateria</title>
<path fill="none" stroke="#000000" d="M414.9611,-2303.8314C414.9611,-2296.131 414.9611,-2286.9743 414.9611,-2278.4166"/>
<polygon fill="#000000" stroke="#000000" points="418.4612,-2278.4132 414.9611,-2268.4133 411.4612,-2278.4133 418.4612,-2278.4132"/>
</g>
<!-- Deuterostomia -->
<g id="node22" class="node">
<title>Deuterostomia</title>
<ellipse fill="none" stroke="#000000" cx="414.9611" cy="-2178" rx="62.3407" ry="18"/>
<text text-anchor="middle" x="414.9611" y="-2173.8" font-family="Times,serif" font-size="14.00" fill="#000000">Deuterostomia</text>
</g>
<!-- Bilateria&#45;&gt;Deuterostomia -->
<g id="edge35" class="edge">
<title>Bilateria&#45;&gt;Deuterostomia</title>
<path fill="none" stroke="#000000" d="M414.9611,-2231.8314C414.9611,-2224.131 414.9611,-2214.9743 414.9611,-2206.4166"/>
<polygon fill="#000000" stroke="#000000" points="418.4612,-2206.4132 414.9611,-2196.4133 411.4612,-2206.4133 418.4612,-2206.4132"/>
</g>
<!-- Hominini -->
<g id="node11" class="node">
<title>Hominini</title>
<ellipse fill="none" stroke="#000000" cx="567.9611" cy="-162" rx="44.0164" ry="18"/>
<text text-anchor="middle" x="567.9611" y="-157.8" font-family="Times,serif" font-size="14.00" fill="#000000">Hominini</text>
</g>
<!-- Hominina -->
<g id="node12" class="node">
<title>Hominina</title>
<ellipse fill="none" stroke="#000000" cx="477.9611" cy="-90" rx="45.4527" ry="18"/>
<text text-anchor="middle" x="477.9611" y="-85.8" font-family="Times,serif" font-size="14.00" fill="#000000">Hominina</text>
</g>
<!-- Hominini&#45;&gt;Hominina -->
<g id="edge6" class="edge">
<title>Hominini&#45;&gt;Hominina</title>
<path fill="none" stroke="#000000" d="M547.5387,-145.6621C535.3412,-135.9041 519.6685,-123.3659 506.2869,-112.6607"/>
<polygon fill="#000000" stroke="#000000" points="508.2978,-109.7872 498.3026,-106.2733 503.9249,-115.2533 508.2978,-109.7872"/>
</g>
<!-- Panina -->
<g id="node51" class="node">
<title>Panina</title>
<ellipse fill="none" stroke="#000000" cx="575.9611" cy="-90" rx="34.3527" ry="18"/>
<text text-anchor="middle" x="575.9611" y="-85.8" font-family="Times,serif" font-size="14.00" fill="#000000">Panina</text>
</g>
<!-- Hominini&#45;&gt;Panina -->
<g id="edge57" class="edge">
<title>Hominini&#45;&gt;Panina</title>
<path fill="none" stroke="#000000" d="M569.9798,-143.8314C570.8354,-136.131 571.8528,-126.9743 572.8037,-118.4166"/>
<polygon fill="#000000" stroke="#000000" points="576.2893,-118.7386 573.9151,-108.4133 569.3322,-117.9656 576.2893,-118.7386"/>
</g>
<!-- Homo -->
<g id="node54" class="node">
<title>Homo</title>
<ellipse fill="none" stroke="#000000" cx="477.9611" cy="-18" rx="32.4324" ry="18"/>
<text text-anchor="middle" x="477.9611" y="-13.8" font-family="Times,serif" font-size="14.00" fill="#000000">Homo</text>
</g>
<!-- Hominina&#45;&gt;Homo -->
<g id="edge44" class="edge">
<title>Hominina&#45;&gt;Homo</title>
<path fill="none" stroke="#000000" d="M477.9611,-71.8314C477.9611,-64.131 477.9611,-54.9743 477.9611,-46.4166"/>
<polygon fill="#000000" stroke="#000000" points="481.4612,-46.4132 477.9611,-36.4133 474.4612,-46.4133 481.4612,-46.4132"/>
</g>
<!-- Laurasiatheria -->
<g id="node13" class="node">
<title>Laurasiatheria</title>
<ellipse fill="none" stroke="#000000" cx="405.9611" cy="-1026" rx="60.8613" ry="18"/>
<text text-anchor="middle" x="405.9611" y="-1021.8" font-family="Times,serif" font-size="14.00" fill="#000000">Laurasiatheria</text>
</g>
<!-- Laurasiatheria&#45;&gt;Scrotifera -->
<g id="edge30" class="edge">
<title>Laurasiatheria&#45;&gt;Scrotifera</title>
<path fill="none" stroke="#000000" d="M367.3146,-1011.9468C334.0246,-999.8413 286.0114,-982.3819 251.3988,-969.7955"/>
<polygon fill="#000000" stroke="#000000" points="252.1615,-966.3487 241.5675,-966.2205 249.7693,-972.9273 252.1615,-966.3487"/>
</g>
<!-- Artiodactyla -->
<g id="node14" class="node">
<title>Artiodactyla</title>
<ellipse fill="none" stroke="#000000" cx="343.9611" cy="-954" rx="54.1144" ry="18"/>
<text text-anchor="middle" x="343.9611" y="-949.8" font-family="Times,serif" font-size="14.00" fill="#000000">Artiodactyla</text>
</g>
<!-- Laurasiatheria&#45;&gt;Artiodactyla -->
<g id="edge7" class="edge">
<title>Laurasiatheria&#45;&gt;Artiodactyla</title>
<path fill="none" stroke="#000000" d="M390.6352,-1008.2022C383.0711,-999.4182 373.8175,-988.672 365.5503,-979.0714"/>
<polygon fill="#000000" stroke="#000000" points="368.0741,-976.6385 358.8967,-971.3446 362.7697,-981.2061 368.0741,-976.6385"/>
</g>
<!-- Pegasoferae -->
<g id="node15" class="node">
<title>Pegasoferae</title>
<ellipse fill="none" stroke="#000000" cx="468.9611" cy="-954" rx="52.6521" ry="18"/>
<text text-anchor="middle" x="468.9611" y="-949.8" font-family="Times,serif" font-size="14.00" fill="#000000">Pegasoferae</text>
</g>
<!-- Laurasiatheria&#45;&gt;Pegasoferae -->
<g id="edge17" class="edge">
<title>Laurasiatheria&#45;&gt;Pegasoferae</title>
<path fill="none" stroke="#000000" d="M421.2116,-1008.5708C429.0274,-999.6385 438.6811,-988.6056 447.2585,-978.8029"/>
<polygon fill="#000000" stroke="#000000" points="449.8999,-981.0993 453.851,-971.2687 444.6319,-976.4897 449.8999,-981.0993"/>
</g>
<!-- Bovidae -->
<g id="node20" class="node">
<title>Bovidae</title>
<ellipse fill="none" stroke="#000000" cx="343.9611" cy="-882" rx="39.6558" ry="18"/>
<text text-anchor="middle" x="343.9611" y="-877.8" font-family="Times,serif" font-size="14.00" fill="#000000">Bovidae</text>
</g>
<!-- Artiodactyla&#45;&gt;Bovidae -->
<g id="edge58" class="edge">
<title>Artiodactyla&#45;&gt;Bovidae</title>
<path fill="none" stroke="#000000" d="M343.9611,-935.8314C343.9611,-928.131 343.9611,-918.9743 343.9611,-910.4166"/>
<polygon fill="#000000" stroke="#000000" points="347.4612,-910.4132 343.9611,-900.4133 340.4612,-910.4133 347.4612,-910.4132"/>
</g>
<!-- Perissodactyla -->
<g id="node16" class="node">
<title>Perissodactyla</title>
<ellipse fill="none" stroke="#000000" cx="468.9611" cy="-882" rx="61.3804" ry="18"/>
<text text-anchor="middle" x="468.9611" y="-877.8" font-family="Times,serif" font-size="14.00" fill="#000000">Perissodactyla</text>
</g>
<!-- Pegasoferae&#45;&gt;Perissodactyla -->
<g id="edge8" class="edge">
<title>Pegasoferae&#45;&gt;Perissodactyla</title>
<path fill="none" stroke="#000000" d="M468.9611,-935.8314C468.9611,-928.131 468.9611,-918.9743 468.9611,-910.4166"/>
<polygon fill="#000000" stroke="#000000" points="472.4612,-910.4132 468.9611,-900.4133 465.4612,-910.4133 472.4612,-910.4132"/>
</g>
<!-- Equidae -->
<g id="node17" class="node">
<title>Equidae</title>
<ellipse fill="none" stroke="#000000" cx="478.9611" cy="-810" rx="39.1627" ry="18"/>
<text text-anchor="middle" x="478.9611" y="-805.8" font-family="Times,serif" font-size="14.00" fill="#000000">Equidae</text>
</g>
<!-- Perissodactyla&#45;&gt;Equidae -->
<g id="edge32" class="edge">
<title>Perissodactyla&#45;&gt;Equidae</title>
<path fill="none" stroke="#000000" d="M471.4845,-863.8314C472.554,-856.131 473.8257,-846.9743 475.0143,-838.4166"/>
<polygon fill="#000000" stroke="#000000" points="478.4946,-838.7997 476.4037,-828.4133 471.5612,-837.8367 478.4946,-838.7997"/>
</g>
<!-- Equinae -->
<g id="node18" class="node">
<title>Equinae</title>
<ellipse fill="none" stroke="#000000" cx="486.9611" cy="-738" rx="39.1627" ry="18"/>
<text text-anchor="middle" x="486.9611" y="-733.8" font-family="Times,serif" font-size="14.00" fill="#000000">Equinae</text>
</g>
<!-- Equidae&#45;&gt;Equinae -->
<g id="edge9" class="edge">
<title>Equidae&#45;&gt;Equinae</title>
<path fill="none" stroke="#000000" d="M480.9798,-791.8314C481.8354,-784.131 482.8528,-774.9743 483.8037,-766.4166"/>
<polygon fill="#000000" stroke="#000000" points="487.2893,-766.7386 484.9151,-756.4133 480.3322,-765.9656 487.2893,-766.7386"/>
</g>
<!-- Equus -->
<g id="node37" class="node">
<title>Equus</title>
<ellipse fill="none" stroke="#000000" cx="487.9611" cy="-666" rx="32.4324" ry="18"/>
<text text-anchor="middle" x="487.9611" y="-661.8" font-family="Times,serif" font-size="14.00" fill="#000000">Equus</text>
</g>
<!-- Equinae&#45;&gt;Equus -->
<g id="edge25" class="edge">
<title>Equinae&#45;&gt;Equus</title>
<path fill="none" stroke="#000000" d="M487.2134,-719.8314C487.3204,-712.131 487.4475,-702.9743 487.5664,-694.4166"/>
<polygon fill="#000000" stroke="#000000" points="491.066,-694.4609 487.7053,-684.4133 484.0667,-694.3637 491.066,-694.4609"/>
</g>
<!-- Felinae -->
<g id="node36" class="node">
<title>Felinae</title>
<ellipse fill="none" stroke="#000000" cx="60.9611" cy="-594" rx="36.2732" ry="18"/>
<text text-anchor="middle" x="60.9611" y="-589.8" font-family="Times,serif" font-size="14.00" fill="#000000">Felinae</text>
</g>
<!-- Felidae&#45;&gt;Felinae -->
<g id="edge24" class="edge">
<title>Felidae&#45;&gt;Felinae</title>
<path fill="none" stroke="#000000" d="M60.9611,-647.8314C60.9611,-640.131 60.9611,-630.9743 60.9611,-622.4166"/>
<polygon fill="#000000" stroke="#000000" points="64.4612,-622.4132 60.9611,-612.4133 57.4612,-622.4133 64.4612,-622.4132"/>
</g>
<!-- Bovinae -->
<g id="node21" class="node">
<title>Bovinae</title>
<ellipse fill="none" stroke="#000000" cx="275.9611" cy="-810" rx="39.6558" ry="18"/>
<text text-anchor="middle" x="275.9611" y="-805.8" font-family="Times,serif" font-size="14.00" fill="#000000">Bovinae</text>
</g>
<!-- Bovidae&#45;&gt;Bovinae -->
<g id="edge11" class="edge">
<title>Bovidae&#45;&gt;Bovinae</title>
<path fill="none" stroke="#000000" d="M328.1896,-865.3008C319.4355,-856.0317 308.3924,-844.339 298.7178,-834.0954"/>
<polygon fill="#000000" stroke="#000000" points="301.0578,-831.4756 291.647,-826.6087 295.9687,-836.282 301.0578,-831.4756"/>
</g>
<!-- Caprinae -->
<g id="node48" class="node">
<title>Caprinae</title>
<ellipse fill="none" stroke="#000000" cx="375.9611" cy="-810" rx="42.0524" ry="18"/>
<text text-anchor="middle" x="375.9611" y="-805.8" font-family="Times,serif" font-size="14.00" fill="#000000">Caprinae</text>
</g>
<!-- Bovidae&#45;&gt;Caprinae -->
<g id="edge37" class="edge">
<title>Bovidae&#45;&gt;Caprinae</title>
<path fill="none" stroke="#000000" d="M351.8712,-864.2022C355.4866,-856.0675 359.8499,-846.2501 363.8641,-837.2181"/>
<polygon fill="#000000" stroke="#000000" points="367.1679,-838.4022 368.031,-827.8425 360.7713,-835.5592 367.1679,-838.4022"/>
</g>
<!-- Bos -->
<g id="node39" class="node">
<title>Bos</title>
<ellipse fill="none" stroke="#000000" cx="275.9611" cy="-738" rx="27" ry="18"/>
<text text-anchor="middle" x="275.9611" y="-733.8" font-family="Times,serif" font-size="14.00" fill="#000000">Bos</text>
</g>
<!-- Bovinae&#45;&gt;Bos -->
<g id="edge27" class="edge">
<title>Bovinae&#45;&gt;Bos</title>
<path fill="none" stroke="#000000" d="M275.9611,-791.8314C275.9611,-784.131 275.9611,-774.9743 275.9611,-766.4166"/>
<polygon fill="#000000" stroke="#000000" points="279.4612,-766.4132 275.9611,-756.4133 272.4612,-766.4133 279.4612,-766.4132"/>
</g>
<!-- Chordata -->
<g id="node23" class="node">
<title>Chordata</title>
<ellipse fill="none" stroke="#000000" cx="414.9611" cy="-2106" rx="42.5456" ry="18"/>
<text text-anchor="middle" x="414.9611" y="-2101.8" font-family="Times,serif" font-size="14.00" fill="#000000">Chordata</text>
</g>
<!-- Deuterostomia&#45;&gt;Chordata -->
<g id="edge12" class="edge">
<title>Deuterostomia&#45;&gt;Chordata</title>
<path fill="none" stroke="#000000" d="M414.9611,-2159.8314C414.9611,-2152.131 414.9611,-2142.9743 414.9611,-2134.4166"/>
<polygon fill="#000000" stroke="#000000" points="418.4612,-2134.4132 414.9611,-2124.4133 411.4612,-2134.4133 418.4612,-2134.4132"/>
</g>
<!-- Olfactores -->
<g id="node31" class="node">
<title>Olfactores</title>
<ellipse fill="none" stroke="#000000" cx="414.9611" cy="-2034" rx="46.8719" ry="18"/>
<text text-anchor="middle" x="414.9611" y="-2029.8" font-family="Times,serif" font-size="14.00" fill="#000000">Olfactores</text>
</g>
<!-- Chordata&#45;&gt;Olfactores -->
<g id="edge18" class="edge">
<title>Chordata&#45;&gt;Olfactores</title>
<path fill="none" stroke="#000000" d="M414.9611,-2087.8314C414.9611,-2080.131 414.9611,-2070.9743 414.9611,-2062.4166"/>
<polygon fill="#000000" stroke="#000000" points="418.4612,-2062.4132 414.9611,-2052.4133 411.4612,-2062.4133 418.4612,-2062.4132"/>
</g>
<!-- Homininae -->
<g id="node24" class="node">
<title>Homininae</title>
<ellipse fill="none" stroke="#000000" cx="618.9611" cy="-234" rx="49.3032" ry="18"/>
<text text-anchor="middle" x="618.9611" y="-229.8" font-family="Times,serif" font-size="14.00" fill="#000000">Homininae</text>
</g>
<!-- Homininae&#45;&gt;Hominini -->
<g id="edge49" class="edge">
<title>Homininae&#45;&gt;Hominini</title>
<path fill="none" stroke="#000000" d="M606.6154,-216.5708C600.5214,-207.9675 593.0471,-197.4156 586.3006,-187.8911"/>
<polygon fill="#000000" stroke="#000000" points="589.0061,-185.6554 580.3698,-179.5182 583.2939,-189.7016 589.0061,-185.6554"/>
</g>
<!-- Gorillini -->
<g id="node25" class="node">
<title>Gorillini</title>
<ellipse fill="none" stroke="#000000" cx="670.9611" cy="-162" rx="40.6335" ry="18"/>
<text text-anchor="middle" x="670.9611" y="-157.8" font-family="Times,serif" font-size="14.00" fill="#000000">Gorillini</text>
</g>
<!-- Homininae&#45;&gt;Gorillini -->
<g id="edge13" class="edge">
<title>Homininae&#45;&gt;Gorillini</title>
<path fill="none" stroke="#000000" d="M631.5488,-216.5708C637.8722,-207.8153 645.6531,-197.0418 652.6262,-187.3867"/>
<polygon fill="#000000" stroke="#000000" points="655.4717,-189.4247 658.4892,-179.2687 649.7969,-185.3263 655.4717,-189.4247"/>
</g>
<!-- Gorilla -->
<g id="node55" class="node">
<title>Gorilla</title>
<ellipse fill="none" stroke="#000000" cx="670.9611" cy="-90" rx="35.3129" ry="18"/>
<text text-anchor="middle" x="670.9611" y="-85.8" font-family="Times,serif" font-size="14.00" fill="#000000">Gorilla</text>
</g>
<!-- Gorillini&#45;&gt;Gorilla -->
<g id="edge45" class="edge">
<title>Gorillini&#45;&gt;Gorilla</title>
<path fill="none" stroke="#000000" d="M670.9611,-143.8314C670.9611,-136.131 670.9611,-126.9743 670.9611,-118.4166"/>
<polygon fill="#000000" stroke="#000000" points="674.4612,-118.4132 670.9611,-108.4133 667.4612,-118.4133 674.4612,-118.4132"/>
</g>
<!-- Canidae -->
<g id="node27" class="node">
<title>Canidae</title>
<ellipse fill="none" stroke="#000000" cx="176.9611" cy="-666" rx="39.1627" ry="18"/>
<text text-anchor="middle" x="176.9611" y="-661.8" font-family="Times,serif" font-size="14.00" fill="#000000">Canidae</text>
</g>
<!-- Caniformia&#45;&gt;Canidae -->
<g id="edge14" class="edge">
<title>Caniformia&#45;&gt;Canidae</title>
<path fill="none" stroke="#000000" d="M176.9611,-719.8314C176.9611,-712.131 176.9611,-702.9743 176.9611,-694.4166"/>
<polygon fill="#000000" stroke="#000000" points="180.4612,-694.4132 176.9611,-684.4133 173.4612,-694.4133 180.4612,-694.4132"/>
</g>
<!-- Canis -->
<g id="node66" class="node">
<title>Canis</title>
<ellipse fill="none" stroke="#000000" cx="176.9611" cy="-594" rx="30.0035" ry="18"/>
<text text-anchor="middle" x="176.9611" y="-589.8" font-family="Times,serif" font-size="14.00" fill="#000000">Canis</text>
</g>
<!-- Canidae&#45;&gt;Canis -->
<g id="edge61" class="edge">
<title>Canidae&#45;&gt;Canis</title>
<path fill="none" stroke="#000000" d="M176.9611,-647.8314C176.9611,-640.131 176.9611,-630.9743 176.9611,-622.4166"/>
<polygon fill="#000000" stroke="#000000" points="180.4612,-622.4132 176.9611,-612.4133 173.4612,-622.4133 180.4612,-622.4132"/>
</g>
<!-- Hominidae -->
<g id="node47" class="node">
<title>Hominidae</title>
<ellipse fill="none" stroke="#000000" cx="618.9611" cy="-306" rx="49.3032" ry="18"/>
<text text-anchor="middle" x="618.9611" y="-301.8" font-family="Times,serif" font-size="14.00" fill="#000000">Hominidae</text>
</g>
<!-- Hominoidea&#45;&gt;Hominidae -->
<g id="edge36" class="edge">
<title>Hominoidea&#45;&gt;Hominidae</title>
<path fill="none" stroke="#000000" d="M618.9611,-359.8314C618.9611,-352.131 618.9611,-342.9743 618.9611,-334.4166"/>
<polygon fill="#000000" stroke="#000000" points="622.4612,-334.4132 618.9611,-324.4133 615.4612,-334.4133 622.4612,-334.4132"/>
</g>
<!-- Capra -->
<g id="node29" class="node">
<title>Capra</title>
<ellipse fill="none" stroke="#000000" cx="373.9611" cy="-738" rx="31.4462" ry="18"/>
<text text-anchor="middle" x="373.9611" y="-733.8" font-family="Times,serif" font-size="14.00" fill="#000000">Capra</text>
</g>
<!-- Capra aegagrus -->
<g id="node30" class="node">
<title>Capra aegagrus</title>
<ellipse fill="none" stroke="#000000" cx="372.9611" cy="-666" rx="64.7209" ry="18"/>
<text text-anchor="middle" x="372.9611" y="-661.8" font-family="Times,serif" font-size="14.00" fill="#000000">Capra aegagrus</text>
</g>
<!-- Capra&#45;&gt;Capra aegagrus -->
<g id="edge16" class="edge">
<title>Capra&#45;&gt;Capra aegagrus</title>
<path fill="none" stroke="#000000" d="M373.7087,-719.8314C373.6018,-712.131 373.4746,-702.9743 373.3557,-694.4166"/>
<polygon fill="#000000" stroke="#000000" points="376.8554,-694.3637 373.2168,-684.4133 369.8561,-694.4609 376.8554,-694.3637"/>
</g>
<!-- Craniata -->
<g id="node49" class="node">
<title>Craniata</title>
<ellipse fill="none" stroke="#000000" cx="414.9611" cy="-1962" rx="40.123" ry="18"/>
<text text-anchor="middle" x="414.9611" y="-1957.8" font-family="Times,serif" font-size="14.00" fill="#000000">Craniata</text>
</g>
<!-- Olfactores&#45;&gt;Craniata -->
<g id="edge38" class="edge">
<title>Olfactores&#45;&gt;Craniata</title>
<path fill="none" stroke="#000000" d="M414.9611,-2015.8314C414.9611,-2008.131 414.9611,-1998.9743 414.9611,-1990.4166"/>
<polygon fill="#000000" stroke="#000000" points="418.4612,-1990.4132 414.9611,-1980.4133 411.4612,-1990.4133 418.4612,-1990.4132"/>
</g>
<!-- Boreoeutheria -->
<g id="node32" class="node">
<title>Boreoeutheria</title>
<ellipse fill="none" stroke="#000000" cx="609.9611" cy="-954" rx="60.3942" ry="18"/>
<text text-anchor="middle" x="609.9611" y="-949.8" font-family="Times,serif" font-size="14.00" fill="#000000">Boreoeutheria</text>
</g>
<!-- Euarchontoglires -->
<g id="node33" class="node">
<title>Euarchontoglires</title>
<ellipse fill="none" stroke="#000000" cx="618.9611" cy="-882" rx="70.534" ry="18"/>
<text text-anchor="middle" x="618.9611" y="-877.8" font-family="Times,serif" font-size="14.00" fill="#000000">Euarchontoglires</text>
</g>
<!-- Boreoeutheria&#45;&gt;Euarchontoglires -->
<g id="edge19" class="edge">
<title>Boreoeutheria&#45;&gt;Euarchontoglires</title>
<path fill="none" stroke="#000000" d="M612.2321,-935.8314C613.1947,-928.131 614.3393,-918.9743 615.409,-910.4166"/>
<polygon fill="#000000" stroke="#000000" points="618.8919,-910.7702 616.6594,-900.4133 611.946,-909.9019 618.8919,-910.7702"/>
</g>
<!-- Euarchonta -->
<g id="node35" class="node">
<title>Euarchonta</title>
<ellipse fill="none" stroke="#000000" cx="618.9611" cy="-810" rx="50.2465" ry="18"/>
<text text-anchor="middle" x="618.9611" y="-805.8" font-family="Times,serif" font-size="14.00" fill="#000000">Euarchonta</text>
</g>
<!-- Euarchontoglires&#45;&gt;Euarchonta -->
<g id="edge23" class="edge">
<title>Euarchontoglires&#45;&gt;Euarchonta</title>
<path fill="none" stroke="#000000" d="M618.9611,-863.8314C618.9611,-856.131 618.9611,-846.9743 618.9611,-838.4166"/>
<polygon fill="#000000" stroke="#000000" points="622.4612,-838.4132 618.9611,-828.4133 615.4612,-838.4133 622.4612,-838.4132"/>
</g>
<!-- Haplorrhini&#45;&gt;Simiiformes -->
<g id="edge40" class="edge">
<title>Haplorrhini&#45;&gt;Simiiformes</title>
<path fill="none" stroke="#000000" d="M618.9611,-575.8314C618.9611,-568.131 618.9611,-558.9743 618.9611,-550.4166"/>
<polygon fill="#000000" stroke="#000000" points="622.4612,-550.4132 618.9611,-540.4133 615.4612,-550.4133 622.4612,-550.4132"/>
</g>
<!-- Euarchonta&#45;&gt;Primatomorpha -->
<g id="edge65" class="edge">
<title>Euarchonta&#45;&gt;Primatomorpha</title>
<path fill="none" stroke="#000000" d="M618.9611,-791.8314C618.9611,-784.131 618.9611,-774.9743 618.9611,-766.4166"/>
<polygon fill="#000000" stroke="#000000" points="622.4612,-766.4132 618.9611,-756.4133 615.4612,-766.4133 622.4612,-766.4132"/>
</g>
<!-- Felis -->
<g id="node56" class="node">
<title>Felis</title>
<ellipse fill="none" stroke="#000000" cx="60.9611" cy="-522" rx="27.113" ry="18"/>
<text text-anchor="middle" x="60.9611" y="-517.8" font-family="Times,serif" font-size="14.00" fill="#000000">Felis</text>
</g>
<!-- Felinae&#45;&gt;Felis -->
<g id="edge47" class="edge">
<title>Felinae&#45;&gt;Felis</title>
<path fill="none" stroke="#000000" d="M60.9611,-575.8314C60.9611,-568.131 60.9611,-558.9743 60.9611,-550.4166"/>
<polygon fill="#000000" stroke="#000000" points="64.4612,-550.4132 60.9611,-540.4133 57.4612,-550.4133 64.4612,-550.4132"/>
</g>
<!-- Equus ferus -->
<g id="node38" class="node">
<title>Equus ferus</title>
<ellipse fill="none" stroke="#000000" cx="487.9611" cy="-594" rx="52.2095" ry="18"/>
<text text-anchor="middle" x="487.9611" y="-589.8" font-family="Times,serif" font-size="14.00" fill="#000000">Equus ferus</text>
</g>
<!-- Equus&#45;&gt;Equus ferus -->
<g id="edge26" class="edge">
<title>Equus&#45;&gt;Equus ferus</title>
<path fill="none" stroke="#000000" d="M487.9611,-647.8314C487.9611,-640.131 487.9611,-630.9743 487.9611,-622.4166"/>
<polygon fill="#000000" stroke="#000000" points="491.4612,-622.4132 487.9611,-612.4133 484.4612,-622.4133 491.4612,-622.4132"/>
</g>
<!-- Cladotheria -->
<g id="node40" class="node">
<title>Cladotheria</title>
<ellipse fill="none" stroke="#000000" cx="480.9611" cy="-1386" rx="51.2242" ry="18"/>
<text text-anchor="middle" x="480.9611" y="-1381.8" font-family="Times,serif" font-size="14.00" fill="#000000">Cladotheria</text>
</g>
<!-- Boreosphenida -->
<g id="node41" class="node">
<title>Boreosphenida</title>
<ellipse fill="none" stroke="#000000" cx="480.9611" cy="-1314" rx="63.3097" ry="18"/>
<text text-anchor="middle" x="480.9611" y="-1309.8" font-family="Times,serif" font-size="14.00" fill="#000000">Boreosphenida</text>
</g>
<!-- Cladotheria&#45;&gt;Boreosphenida -->
<g id="edge28" class="edge">
<title>Cladotheria&#45;&gt;Boreosphenida</title>
<path fill="none" stroke="#000000" d="M480.9611,-1367.8314C480.9611,-1360.131 480.9611,-1350.9743 480.9611,-1342.4166"/>
<polygon fill="#000000" stroke="#000000" points="484.4612,-1342.4132 480.9611,-1332.4133 477.4612,-1342.4133 484.4612,-1342.4132"/>
</g>
<!-- Theria -->
<g id="node42" class="node">
<title>Theria</title>
<ellipse fill="none" stroke="#000000" cx="480.9611" cy="-1242" rx="33.3665" ry="18"/>
<text text-anchor="middle" x="480.9611" y="-1237.8" font-family="Times,serif" font-size="14.00" fill="#000000">Theria</text>
</g>
<!-- Boreosphenida&#45;&gt;Theria -->
<g id="edge43" class="edge">
<title>Boreosphenida&#45;&gt;Theria</title>
<path fill="none" stroke="#000000" d="M480.9611,-1295.8314C480.9611,-1288.131 480.9611,-1278.9743 480.9611,-1270.4166"/>
<polygon fill="#000000" stroke="#000000" points="484.4612,-1270.4132 480.9611,-1260.4133 477.4612,-1270.4133 484.4612,-1270.4132"/>
</g>
<!-- Eutheria -->
<g id="node43" class="node">
<title>Eutheria</title>
<ellipse fill="none" stroke="#000000" cx="480.9611" cy="-1170" rx="40.123" ry="18"/>
<text text-anchor="middle" x="480.9611" y="-1165.8" font-family="Times,serif" font-size="14.00" fill="#000000">Eutheria</text>
</g>
<!-- Theria&#45;&gt;Eutheria -->
<g id="edge29" class="edge">
<title>Theria&#45;&gt;Eutheria</title>
<path fill="none" stroke="#000000" d="M480.9611,-1223.8314C480.9611,-1216.131 480.9611,-1206.9743 480.9611,-1198.4166"/>
<polygon fill="#000000" stroke="#000000" points="484.4612,-1198.4132 480.9611,-1188.4133 477.4612,-1198.4133 484.4612,-1198.4132"/>
</g>
<!-- Placentalia -->
<g id="node46" class="node">
<title>Placentalia</title>
<ellipse fill="none" stroke="#000000" cx="480.9611" cy="-1098" rx="48.8014" ry="18"/>
<text text-anchor="middle" x="480.9611" y="-1093.8" font-family="Times,serif" font-size="14.00" fill="#000000">Placentalia</text>
</g>
<!-- Eutheria&#45;&gt;Placentalia -->
<g id="edge33" class="edge">
<title>Eutheria&#45;&gt;Placentalia</title>
<path fill="none" stroke="#000000" d="M480.9611,-1151.8314C480.9611,-1144.131 480.9611,-1134.9743 480.9611,-1126.4166"/>
<polygon fill="#000000" stroke="#000000" points="484.4612,-1126.4132 480.9611,-1116.4133 477.4612,-1126.4133 484.4612,-1126.4132"/>
</g>
<!-- Prototheria -->
<g id="node44" class="node">
<title>Prototheria</title>
<ellipse fill="none" stroke="#000000" cx="350.9611" cy="-1602" rx="49.3032" ry="18"/>
<text text-anchor="middle" x="350.9611" y="-1597.8" font-family="Times,serif" font-size="14.00" fill="#000000">Prototheria</text>
</g>
<!-- Monotremata -->
<g id="node45" class="node">
<title>Monotremata</title>
<ellipse fill="none" stroke="#000000" cx="348.9611" cy="-1530" rx="57.9979" ry="18"/>
<text text-anchor="middle" x="348.9611" y="-1525.8" font-family="Times,serif" font-size="14.00" fill="#000000">Monotremata</text>
</g>
<!-- Prototheria&#45;&gt;Monotremata -->
<g id="edge31" class="edge">
<title>Prototheria&#45;&gt;Monotremata</title>
<path fill="none" stroke="#000000" d="M350.4564,-1583.8314C350.2425,-1576.131 349.9881,-1566.9743 349.7504,-1558.4166"/>
<polygon fill="#000000" stroke="#000000" points="353.249,-1558.3122 349.4725,-1548.4133 346.2517,-1558.5066 353.249,-1558.3122"/>
</g>
<!-- Placentalia&#45;&gt;Laurasiatheria -->
<g id="edge34" class="edge">
<title>Placentalia&#45;&gt;Laurasiatheria</title>
<path fill="none" stroke="#000000" d="M463.1871,-1080.937C453.706,-1071.8352 441.8731,-1060.4756 431.4318,-1050.4519"/>
<polygon fill="#000000" stroke="#000000" points="433.7662,-1047.8412 424.1284,-1043.4407 428.9185,-1052.8909 433.7662,-1047.8412"/>
</g>
<!-- Exafroplacentalia -->
<g id="node65" class="node">
<title>Exafroplacentalia</title>
<ellipse fill="none" stroke="#000000" cx="587.9611" cy="-1026" rx="72.429" ry="18"/>
<text text-anchor="middle" x="587.9611" y="-1021.8" font-family="Times,serif" font-size="14.00" fill="#000000">Exafroplacentalia</text>
</g>
<!-- Placentalia&#45;&gt;Exafroplacentalia -->
<g id="edge64" class="edge">
<title>Placentalia&#45;&gt;Exafroplacentalia</title>
<path fill="none" stroke="#000000" d="M504.4427,-1082.1993C518.9763,-1072.4197 537.8798,-1059.6996 554.0259,-1048.8349"/>
<polygon fill="#000000" stroke="#000000" points="556.3245,-1051.5068 562.6671,-1043.0202 552.4165,-1045.6992 556.3245,-1051.5068"/>
</g>
<!-- Hominidae&#45;&gt;Homininae -->
<g id="edge55" class="edge">
<title>Hominidae&#45;&gt;Homininae</title>
<path fill="none" stroke="#000000" d="M618.9611,-287.8314C618.9611,-280.131 618.9611,-270.9743 618.9611,-262.4166"/>
<polygon fill="#000000" stroke="#000000" points="622.4612,-262.4132 618.9611,-252.4133 615.4612,-262.4133 622.4612,-262.4132"/>
</g>
<!-- Caprinae&#45;&gt;Capra -->
<g id="edge46" class="edge">
<title>Caprinae&#45;&gt;Capra</title>
<path fill="none" stroke="#000000" d="M375.4564,-791.8314C375.2425,-784.131 374.9881,-774.9743 374.7504,-766.4166"/>
<polygon fill="#000000" stroke="#000000" points="378.249,-766.3122 374.4725,-756.4133 371.2517,-766.5066 378.249,-766.3122"/>
</g>
<!-- Vertebrata -->
<g id="node64" class="node">
<title>Vertebrata</title>
<ellipse fill="none" stroke="#000000" cx="414.9611" cy="-1890" rx="46.3787" ry="18"/>
<text text-anchor="middle" x="414.9611" y="-1885.8" font-family="Times,serif" font-size="14.00" fill="#000000">Vertebrata</text>
</g>
<!-- Craniata&#45;&gt;Vertebrata -->
<g id="edge59" class="edge">
<title>Craniata&#45;&gt;Vertebrata</title>
<path fill="none" stroke="#000000" d="M414.9611,-1943.8314C414.9611,-1936.131 414.9611,-1926.9743 414.9611,-1918.4166"/>
<polygon fill="#000000" stroke="#000000" points="418.4612,-1918.4132 414.9611,-1908.4133 411.4612,-1918.4133 418.4612,-1918.4132"/>
</g>
<!-- Mammalia -->
<g id="node50" class="node">
<title>Mammalia</title>
<ellipse fill="none" stroke="#000000" cx="414.9611" cy="-1674" rx="48.3341" ry="18"/>
<text text-anchor="middle" x="414.9611" y="-1669.8" font-family="Times,serif" font-size="14.00" fill="#000000">Mammalia</text>
</g>
<!-- Mammalia&#45;&gt;Prototheria -->
<g id="edge39" class="edge">
<title>Mammalia&#45;&gt;Prototheria</title>
<path fill="none" stroke="#000000" d="M399.4685,-1656.5708C391.5286,-1647.6385 381.7216,-1636.6056 373.0081,-1626.8029"/>
<polygon fill="#000000" stroke="#000000" points="375.5706,-1624.4175 366.311,-1619.2687 370.3387,-1629.0681 375.5706,-1624.4175"/>
</g>
<!-- Theriamorpha -->
<g id="node62" class="node">
<title>Theriamorpha</title>
<ellipse fill="none" stroke="#000000" cx="479.9611" cy="-1602" rx="60.3942" ry="18"/>
<text text-anchor="middle" x="479.9611" y="-1597.8" font-family="Times,serif" font-size="14.00" fill="#000000">Theriamorpha</text>
</g>
<!-- Mammalia&#45;&gt;Theriamorpha -->
<g id="edge63" class="edge">
<title>Mammalia&#45;&gt;Theriamorpha</title>
<path fill="none" stroke="#000000" d="M430.6958,-1656.5708C438.7004,-1647.7041 448.5735,-1636.7678 457.3741,-1627.0194"/>
<polygon fill="#000000" stroke="#000000" points="460.0429,-1629.2863 464.146,-1619.5182 454.847,-1624.5956 460.0429,-1629.2863"/>
</g>
<!-- Pan -->
<g id="node52" class="node">
<title>Pan</title>
<ellipse fill="none" stroke="#000000" cx="575.9611" cy="-18" rx="27" ry="18"/>
<text text-anchor="middle" x="575.9611" y="-13.8" font-family="Times,serif" font-size="14.00" fill="#000000">Pan</text>
</g>
<!-- Panina&#45;&gt;Pan -->
<g id="edge41" class="edge">
<title>Panina&#45;&gt;Pan</title>
<path fill="none" stroke="#000000" d="M575.9611,-71.8314C575.9611,-64.131 575.9611,-54.9743 575.9611,-46.4166"/>
<polygon fill="#000000" stroke="#000000" points="579.4612,-46.4132 575.9611,-36.4133 572.4612,-46.4133 579.4612,-46.4132"/>
</g>
<!-- Eukaryota -->
<g id="node53" class="node">
<title>Eukaryota</title>
<ellipse fill="none" stroke="#000000" cx="414.9611" cy="-2394" rx="46.3959" ry="18"/>
<text text-anchor="middle" x="414.9611" y="-2389.8" font-family="Times,serif" font-size="14.00" fill="#000000">Eukaryota</text>
</g>
<!-- Eukaryota&#45;&gt;Animalia -->
<g id="edge42" class="edge">
<title>Eukaryota&#45;&gt;Animalia</title>
<path fill="none" stroke="#000000" d="M414.9611,-2375.8314C414.9611,-2368.131 414.9611,-2358.9743 414.9611,-2350.4166"/>
<polygon fill="#000000" stroke="#000000" points="418.4612,-2350.4132 414.9611,-2340.4133 411.4612,-2350.4133 418.4612,-2350.4132"/>
</g>
<!-- Felis silvestris -->
<g id="node59" class="node">
<title>Felis silvestris</title>
<ellipse fill="none" stroke="#000000" cx="60.9611" cy="-450" rx="60.9222" ry="18"/>
<text text-anchor="middle" x="60.9611" y="-445.8" font-family="Times,serif" font-size="14.00" fill="#000000">Felis silvestris</text>
</g>
<!-- Felis&#45;&gt;Felis silvestris -->
<g id="edge50" class="edge">
<title>Felis&#45;&gt;Felis silvestris</title>
<path fill="none" stroke="#000000" d="M60.9611,-503.8314C60.9611,-496.131 60.9611,-486.9743 60.9611,-478.4166"/>
<polygon fill="#000000" stroke="#000000" points="64.4612,-478.4132 60.9611,-468.4133 57.4612,-478.4133 64.4612,-478.4132"/>
</g>
<!-- Theriiformes -->
<g id="node57" class="node">
<title>Theriiformes</title>
<ellipse fill="none" stroke="#000000" cx="480.9611" cy="-1530" rx="56.0441" ry="18"/>
<text text-anchor="middle" x="480.9611" y="-1525.8" font-family="Times,serif" font-size="14.00" fill="#000000">Theriiformes</text>
</g>
<!-- Trechnotheria -->
<g id="node58" class="node">
<title>Trechnotheria</title>
<ellipse fill="none" stroke="#000000" cx="480.9611" cy="-1458" rx="59.2874" ry="18"/>
<text text-anchor="middle" x="480.9611" y="-1453.8" font-family="Times,serif" font-size="14.00" fill="#000000">Trechnotheria</text>
</g>
<!-- Theriiformes&#45;&gt;Trechnotheria -->
<g id="edge48" class="edge">
<title>Theriiformes&#45;&gt;Trechnotheria</title>
<path fill="none" stroke="#000000" d="M480.9611,-1511.8314C480.9611,-1504.131 480.9611,-1494.9743 480.9611,-1486.4166"/>
<polygon fill="#000000" stroke="#000000" points="484.4612,-1486.4132 480.9611,-1476.4133 477.4612,-1486.4133 484.4612,-1486.4132"/>
</g>
<!-- Trechnotheria&#45;&gt;Cladotheria -->
<g id="edge62" class="edge">
<title>Trechnotheria&#45;&gt;Cladotheria</title>
<path fill="none" stroke="#000000" d="M480.9611,-1439.8314C480.9611,-1432.131 480.9611,-1422.9743 480.9611,-1414.4166"/>
<polygon fill="#000000" stroke="#000000" points="484.4612,-1414.4132 480.9611,-1404.4133 477.4612,-1414.4133 484.4612,-1414.4132"/>
</g>
<!-- Tetrapoda -->
<g id="node60" class="node">
<title>Tetrapoda</title>
<ellipse fill="none" stroke="#000000" cx="414.9611" cy="-1746" rx="45.1683" ry="18"/>
<text text-anchor="middle" x="414.9611" y="-1741.8" font-family="Times,serif" font-size="14.00" fill="#000000">Tetrapoda</text>
</g>
<!-- Tetrapoda&#45;&gt;Mammalia -->
<g id="edge51" class="edge">
<title>Tetrapoda&#45;&gt;Mammalia</title>
<path fill="none" stroke="#000000" d="M414.9611,-1727.8314C414.9611,-1720.131 414.9611,-1710.9743 414.9611,-1702.4166"/>
<polygon fill="#000000" stroke="#000000" points="418.4612,-1702.4132 414.9611,-1692.4133 411.4612,-1702.4133 418.4612,-1702.4132"/>
</g>
<!-- Biota -->
<g id="node61" class="node">
<title>Biota</title>
<ellipse fill="none" stroke="#000000" cx="414.9611" cy="-2466" rx="29.0343" ry="18"/>
<text text-anchor="middle" x="414.9611" y="-2461.8" font-family="Times,serif" font-size="14.00" fill="#000000">Biota</text>
</g>
<!-- Biota&#45;&gt;Eukaryota -->
<g id="edge52" class="edge">
<title>Biota&#45;&gt;Eukaryota</title>
<path fill="none" stroke="#000000" d="M414.9611,-2447.8314C414.9611,-2440.131 414.9611,-2430.9743 414.9611,-2422.4166"/>
<polygon fill="#000000" stroke="#000000" points="418.4612,-2422.4132 414.9611,-2412.4133 411.4612,-2422.4133 418.4612,-2422.4132"/>
</g>
<!-- Theriamorpha&#45;&gt;Theriiformes -->
<g id="edge53" class="edge">
<title>Theriamorpha&#45;&gt;Theriiformes</title>
<path fill="none" stroke="#000000" d="M480.2134,-1583.8314C480.3204,-1576.131 480.4475,-1566.9743 480.5664,-1558.4166"/>
<polygon fill="#000000" stroke="#000000" points="484.066,-1558.4609 480.7053,-1548.4133 477.0667,-1558.3637 484.066,-1558.4609"/>
</g>
<!-- Gnathostomata -->
<g id="node63" class="node">
<title>Gnathostomata</title>
<ellipse fill="none" stroke="#000000" cx="414.9611" cy="-1818" rx="63.7942" ry="18"/>
<text text-anchor="middle" x="414.9611" y="-1813.8" font-family="Times,serif" font-size="14.00" fill="#000000">Gnathostomata</text>
</g>
<!-- Gnathostomata&#45;&gt;Tetrapoda -->
<g id="edge54" class="edge">
<title>Gnathostomata&#45;&gt;Tetrapoda</title>
<path fill="none" stroke="#000000" d="M414.9611,-1799.8314C414.9611,-1792.131 414.9611,-1782.9743 414.9611,-1774.4166"/>
<polygon fill="#000000" stroke="#000000" points="418.4612,-1774.4132 414.9611,-1764.4133 411.4612,-1774.4133 418.4612,-1774.4132"/>
</g>
<!-- Vertebrata&#45;&gt;Gnathostomata -->
<g id="edge56" class="edge">
<title>Vertebrata&#45;&gt;Gnathostomata</title>
<path fill="none" stroke="#000000" d="M414.9611,-1871.8314C414.9611,-1864.131 414.9611,-1854.9743 414.9611,-1846.4166"/>
<polygon fill="#000000" stroke="#000000" points="418.4612,-1846.4132 414.9611,-1836.4133 411.4612,-1846.4133 418.4612,-1846.4132"/>
</g>
<!-- Exafroplacentalia&#45;&gt;Boreoeutheria -->
<g id="edge60" class="edge">
<title>Exafroplacentalia&#45;&gt;Boreoeutheria</title>
<path fill="none" stroke="#000000" d="M593.5126,-1007.8314C595.8914,-1000.0463 598.7249,-990.7729 601.3643,-982.1347"/>
<polygon fill="#000000" stroke="#000000" points="604.7598,-982.9996 604.3348,-972.4133 598.0653,-980.954 604.7598,-982.9996"/>
</g>
</g>
</svg>
