<?xml version="1.0" encoding="UTF-8" standalone="no"?>
<!DOCTYPE svg PUBLIC "-//W3C//DTD SVG 1.1//EN"
 "http://www.w3.org/Graphics/SVG/1.1/DTD/svg11.dtd">
<!-- Generated by graphviz version 2.38.0 (20140413.2041)
 -->
<!-- Title: tree Pages: 1 -->
<svg width="815pt" height="2492pt"
 viewBox="0.00 0.00 815.14 2492.00" xmlns="http://www.w3.org/2000/svg" xmlns:xlink="http://www.w3.org/1999/xlink">
<g id="graph0" class="graph" transform="scale(1 1) rotate(0) translate(4 2488)">
<title>tree</title>
<polygon fill="white" stroke="none" points="-4,4 -4,-2488 811.143,-2488 811.143,4 -4,4"/>
<!-- Olfactores -->
<g id="node1" class="node"><title>Olfactores</title>
<ellipse fill="none" stroke="black" cx="444.692" cy="-2034" rx="46.8719" ry="18"/>
<text text-anchor="middle" x="444.692" y="-2029.8" font-family="Times,serif" font-size="14.00">Olfactores</text>
</g>
<!-- Craniata -->
<g id="node2" class="node"><title>Craniata</title>
<ellipse fill="none" stroke="black" cx="444.692" cy="-1962" rx="40.123" ry="18"/>
<text text-anchor="middle" x="444.692" y="-1957.8" font-family="Times,serif" font-size="14.00">Craniata</text>
</g>
<!-- Olfactores&#45;&gt;Craniata -->
<g id="edge1" class="edge"><title>Olfactores&#45;&gt;Craniata</title>
<path fill="none" stroke="black" d="M444.692,-2015.7C444.692,-2007.98 444.692,-1998.71 444.692,-1990.11"/>
<polygon fill="black" stroke="black" points="448.192,-1990.1 444.692,-1980.1 441.192,-1990.1 448.192,-1990.1"/>
</g>
<!-- Vertebrata -->
<g id="node18" class="node"><title>Vertebrata</title>
<ellipse fill="none" stroke="black" cx="444.692" cy="-1890" rx="46.3787" ry="18"/>
<text text-anchor="middle" x="444.692" y="-1885.8" font-family="Times,serif" font-size="14.00">Vertebrata</text>
</g>
<!-- Craniata&#45;&gt;Vertebrata -->
<g id="edge11" class="edge"><title>Craniata&#45;&gt;Vertebrata</title>
<path fill="none" stroke="black" d="M444.692,-1943.7C444.692,-1935.98 444.692,-1926.71 444.692,-1918.11"/>
<polygon fill="black" stroke="black" points="448.192,-1918.1 444.692,-1908.1 441.192,-1918.1 448.192,-1918.1"/>
</g>
<!-- Eutheria -->
<g id="node3" class="node"><title>Eutheria</title>
<ellipse fill="none" stroke="black" cx="519.692" cy="-1170" rx="40.123" ry="18"/>
<text text-anchor="middle" x="519.692" y="-1165.8" font-family="Times,serif" font-size="14.00">Eutheria</text>
</g>
<!-- Eutheria&#45;&gt;Eutheria -->
<g id="edge2" class="edge"><title>Eutheria&#45;&gt;Eutheria</title>
<path fill="none" stroke="black" d="M547.771,-1182.85C563.379,-1185.25 577.753,-1180.97 577.753,-1170 577.753,-1161.52 569.155,-1157.03 558.037,-1156.54"/>
<polygon fill="black" stroke="black" points="557.549,-1153.07 547.771,-1157.15 557.958,-1160.05 557.549,-1153.07"/>
</g>
<!-- Laurasiatheria -->
<g id="node6" class="node"><title>Laurasiatheria</title>
<ellipse fill="none" stroke="black" cx="444.692" cy="-1098" rx="60.8613" ry="18"/>
<text text-anchor="middle" x="444.692" y="-1093.8" font-family="Times,serif" font-size="14.00">Laurasiatheria</text>
</g>
<!-- Eutheria&#45;&gt;Laurasiatheria -->
<g id="edge47" class="edge"><title>Eutheria&#45;&gt;Laurasiatheria</title>
<path fill="none" stroke="black" d="M503.047,-1153.46C493.323,-1144.39 480.857,-1132.75 469.945,-1122.57"/>
<polygon fill="black" stroke="black" points="472.034,-1119.73 462.335,-1115.47 467.257,-1124.85 472.034,-1119.73"/>
</g>
<!-- Exafroplacentalia -->
<g id="node49" class="node"><title>Exafroplacentalia</title>
<ellipse fill="none" stroke="black" cx="652.692" cy="-1098" rx="72.429" ry="18"/>
<text text-anchor="middle" x="652.692" y="-1093.8" font-family="Times,serif" font-size="14.00">Exafroplacentalia</text>
</g>
<!-- Eutheria&#45;&gt;Exafroplacentalia -->
<g id="edge36" class="edge"><title>Eutheria&#45;&gt;Exafroplacentalia</title>
<path fill="none" stroke="black" d="M544.708,-1155.83C564.284,-1145.53 591.846,-1131.02 614.224,-1119.25"/>
<polygon fill="black" stroke="black" points="615.925,-1122.31 623.144,-1114.55 612.664,-1116.11 615.925,-1122.31"/>
</g>
<!-- Hominidae -->
<g id="node4" class="node"><title>Hominidae</title>
<ellipse fill="none" stroke="black" cx="690.692" cy="-378" rx="49.3032" ry="18"/>
<text text-anchor="middle" x="690.692" y="-373.8" font-family="Times,serif" font-size="14.00">Hominidae</text>
</g>
<!-- Homininae -->
<g id="node5" class="node"><title>Homininae</title>
<ellipse fill="none" stroke="black" cx="690.692" cy="-306" rx="49.3032" ry="18"/>
<text text-anchor="middle" x="690.692" y="-301.8" font-family="Times,serif" font-size="14.00">Homininae</text>
</g>
<!-- Hominidae&#45;&gt;Homininae -->
<g id="edge3" class="edge"><title>Hominidae&#45;&gt;Homininae</title>
<path fill="none" stroke="black" d="M690.692,-359.697C690.692,-351.983 690.692,-342.712 690.692,-334.112"/>
<polygon fill="black" stroke="black" points="694.192,-334.104 690.692,-324.104 687.192,-334.104 694.192,-334.104"/>
</g>
<!-- Hominini -->
<g id="node13" class="node"><title>Hominini</title>
<ellipse fill="none" stroke="black" cx="635.692" cy="-234" rx="44.0164" ry="18"/>
<text text-anchor="middle" x="635.692" y="-229.8" font-family="Times,serif" font-size="14.00">Hominini</text>
</g>
<!-- Homininae&#45;&gt;Hominini -->
<g id="edge8" class="edge"><title>Homininae&#45;&gt;Hominini</title>
<path fill="none" stroke="black" d="M677.657,-288.411C670.876,-279.781 662.455,-269.062 654.939,-259.497"/>
<polygon fill="black" stroke="black" points="657.563,-257.171 648.632,-251.47 652.058,-261.496 657.563,-257.171"/>
</g>
<!-- Gorillini -->
<g id="node16" class="node"><title>Gorillini</title>
<ellipse fill="none" stroke="black" cx="740.692" cy="-234" rx="40.6335" ry="18"/>
<text text-anchor="middle" x="740.692" y="-229.8" font-family="Times,serif" font-size="14.00">Gorillini</text>
</g>
<!-- Homininae&#45;&gt;Gorillini -->
<g id="edge30" class="edge"><title>Homininae&#45;&gt;Gorillini</title>
<path fill="none" stroke="black" d="M702.541,-288.411C708.643,-279.868 716.207,-269.278 722.986,-259.787"/>
<polygon fill="black" stroke="black" points="725.963,-261.642 728.927,-251.47 720.267,-257.573 725.963,-261.642"/>
</g>
<!-- Artiodactyla -->
<g id="node7" class="node"><title>Artiodactyla</title>
<ellipse fill="none" stroke="black" cx="235.692" cy="-1026" rx="54.1144" ry="18"/>
<text text-anchor="middle" x="235.692" y="-1021.8" font-family="Times,serif" font-size="14.00">Artiodactyla</text>
</g>
<!-- Laurasiatheria&#45;&gt;Artiodactyla -->
<g id="edge4" class="edge"><title>Laurasiatheria&#45;&gt;Artiodactyla</title>
<path fill="none" stroke="black" d="M405.87,-1084C370.868,-1072.27 319.334,-1055.01 282.154,-1042.56"/>
<polygon fill="black" stroke="black" points="283.146,-1039.2 272.552,-1039.35 280.923,-1045.84 283.146,-1039.2"/>
</g>
<!-- Scrotifera -->
<g id="node8" class="node"><title>Scrotifera</title>
<ellipse fill="none" stroke="black" cx="419.692" cy="-1026" rx="44.9423" ry="18"/>
<text text-anchor="middle" x="419.692" y="-1021.8" font-family="Times,serif" font-size="14.00">Scrotifera</text>
</g>
<!-- Laurasiatheria&#45;&gt;Scrotifera -->
<g id="edge5" class="edge"><title>Laurasiatheria&#45;&gt;Scrotifera</title>
<path fill="none" stroke="black" d="M438.64,-1080.05C435.826,-1072.18 432.412,-1062.62 429.261,-1053.79"/>
<polygon fill="black" stroke="black" points="432.521,-1052.52 425.861,-1044.28 425.929,-1054.87 432.521,-1052.52"/>
</g>
<!-- Pegasoferae -->
<g id="node23" class="node"><title>Pegasoferae</title>
<ellipse fill="none" stroke="black" cx="535.692" cy="-1026" rx="52.6521" ry="18"/>
<text text-anchor="middle" x="535.692" y="-1021.8" font-family="Times,serif" font-size="14.00">Pegasoferae</text>
</g>
<!-- Laurasiatheria&#45;&gt;Pegasoferae -->
<g id="edge14" class="edge"><title>Laurasiatheria&#45;&gt;Pegasoferae</title>
<path fill="none" stroke="black" d="M465.798,-1080.76C478.146,-1071.27 493.898,-1059.15 507.321,-1048.82"/>
<polygon fill="black" stroke="black" points="509.534,-1051.54 515.326,-1042.67 505.266,-1045.99 509.534,-1051.54"/>
</g>
<!-- Bovidae -->
<g id="node37" class="node"><title>Bovidae</title>
<ellipse fill="none" stroke="black" cx="178.692" cy="-954" rx="39.6558" ry="18"/>
<text text-anchor="middle" x="178.692" y="-949.8" font-family="Times,serif" font-size="14.00">Bovidae</text>
</g>
<!-- Artiodactyla&#45;&gt;Bovidae -->
<g id="edge66" class="edge"><title>Artiodactyla&#45;&gt;Bovidae</title>
<path fill="none" stroke="black" d="M222.183,-1008.41C215.156,-999.781 206.428,-989.062 198.639,-979.497"/>
<polygon fill="black" stroke="black" points="201.131,-977.014 192.103,-971.47 195.703,-981.434 201.131,-977.014"/>
</g>
<!-- Ferae -->
<g id="node39" class="node"><title>Ferae</title>
<ellipse fill="none" stroke="black" cx="419.692" cy="-954" rx="29.9931" ry="18"/>
<text text-anchor="middle" x="419.692" y="-949.8" font-family="Times,serif" font-size="14.00">Ferae</text>
</g>
<!-- Scrotifera&#45;&gt;Ferae -->
<g id="edge55" class="edge"><title>Scrotifera&#45;&gt;Ferae</title>
<path fill="none" stroke="black" d="M419.692,-1007.7C419.692,-999.983 419.692,-990.712 419.692,-982.112"/>
<polygon fill="black" stroke="black" points="423.192,-982.104 419.692,-972.104 416.192,-982.104 423.192,-982.104"/>
</g>
<!-- Perissodactyla -->
<g id="node9" class="node"><title>Perissodactyla</title>
<ellipse fill="none" stroke="black" cx="535.692" cy="-954" rx="61.3804" ry="18"/>
<text text-anchor="middle" x="535.692" y="-949.8" font-family="Times,serif" font-size="14.00">Perissodactyla</text>
</g>
<!-- Equidae -->
<g id="node10" class="node"><title>Equidae</title>
<ellipse fill="none" stroke="black" cx="535.692" cy="-882" rx="39.1627" ry="18"/>
<text text-anchor="middle" x="535.692" y="-877.8" font-family="Times,serif" font-size="14.00">Equidae</text>
</g>
<!-- Perissodactyla&#45;&gt;Equidae -->
<g id="edge6" class="edge"><title>Perissodactyla&#45;&gt;Equidae</title>
<path fill="none" stroke="black" d="M535.692,-935.697C535.692,-927.983 535.692,-918.712 535.692,-910.112"/>
<polygon fill="black" stroke="black" points="539.192,-910.104 535.692,-900.104 532.192,-910.104 539.192,-910.104"/>
</g>
<!-- Equinae -->
<g id="node36" class="node"><title>Equinae</title>
<ellipse fill="none" stroke="black" cx="535.692" cy="-810" rx="39.1627" ry="18"/>
<text text-anchor="middle" x="535.692" y="-805.8" font-family="Times,serif" font-size="14.00">Equinae</text>
</g>
<!-- Equidae&#45;&gt;Equinae -->
<g id="edge22" class="edge"><title>Equidae&#45;&gt;Equinae</title>
<path fill="none" stroke="black" d="M535.692,-863.697C535.692,-855.983 535.692,-846.712 535.692,-838.112"/>
<polygon fill="black" stroke="black" points="539.192,-838.104 535.692,-828.104 532.192,-838.104 539.192,-838.104"/>
</g>
<!-- Tetrapoda -->
<g id="node11" class="node"><title>Tetrapoda</title>
<ellipse fill="none" stroke="black" cx="444.692" cy="-1746" rx="45.1683" ry="18"/>
<text text-anchor="middle" x="444.692" y="-1741.8" font-family="Times,serif" font-size="14.00">Tetrapoda</text>
</g>
<!-- Mammalia -->
<g id="node12" class="node"><title>Mammalia</title>
<ellipse fill="none" stroke="black" cx="444.692" cy="-1674" rx="48.3341" ry="18"/>
<text text-anchor="middle" x="444.692" y="-1669.8" font-family="Times,serif" font-size="14.00">Mammalia</text>
</g>
<!-- Tetrapoda&#45;&gt;Mammalia -->
<g id="edge7" class="edge"><title>Tetrapoda&#45;&gt;Mammalia</title>
<path fill="none" stroke="black" d="M444.692,-1727.7C444.692,-1719.98 444.692,-1710.71 444.692,-1702.11"/>
<polygon fill="black" stroke="black" points="448.192,-1702.1 444.692,-1692.1 441.192,-1702.1 448.192,-1702.1"/>
</g>
<!-- Prototheria -->
<g id="node33" class="node"><title>Prototheria</title>
<ellipse fill="none" stroke="black" cx="380.692" cy="-1602" rx="49.3032" ry="18"/>
<text text-anchor="middle" x="380.692" y="-1597.8" font-family="Times,serif" font-size="14.00">Prototheria</text>
</g>
<!-- Mammalia&#45;&gt;Prototheria -->
<g id="edge63" class="edge"><title>Mammalia&#45;&gt;Prototheria</title>
<path fill="none" stroke="black" d="M429.848,-1656.76C421.806,-1647.97 411.712,-1636.93 402.766,-1627.14"/>
<polygon fill="black" stroke="black" points="405.23,-1624.65 395.899,-1619.63 400.064,-1629.38 405.23,-1624.65"/>
</g>
<!-- Theriamorpha -->
<g id="node54" class="node"><title>Theriamorpha</title>
<ellipse fill="none" stroke="black" cx="510.692" cy="-1602" rx="60.3942" ry="18"/>
<text text-anchor="middle" x="510.692" y="-1597.8" font-family="Times,serif" font-size="14.00">Theriamorpha</text>
</g>
<!-- Mammalia&#45;&gt;Theriamorpha -->
<g id="edge60" class="edge"><title>Mammalia&#45;&gt;Theriamorpha</title>
<path fill="none" stroke="black" d="M459.999,-1656.76C468.292,-1647.97 478.702,-1636.93 487.927,-1627.14"/>
<polygon fill="black" stroke="black" points="490.695,-1629.31 495.009,-1619.63 485.602,-1624.51 490.695,-1629.31"/>
</g>
<!-- Panina -->
<g id="node19" class="node"><title>Panina</title>
<ellipse fill="none" stroke="black" cx="514.692" cy="-162" rx="34.3527" ry="18"/>
<text text-anchor="middle" x="514.692" y="-157.8" font-family="Times,serif" font-size="14.00">Panina</text>
</g>
<!-- Hominini&#45;&gt;Panina -->
<g id="edge68" class="edge"><title>Hominini&#45;&gt;Panina</title>
<path fill="none" stroke="black" d="M611.205,-218.834C592.402,-207.956 566.3,-192.856 545.982,-181.102"/>
<polygon fill="black" stroke="black" points="547.509,-177.942 537.101,-175.964 544.004,-184.001 547.509,-177.942"/>
</g>
<!-- Hominina -->
<g id="node56" class="node"><title>Hominina</title>
<ellipse fill="none" stroke="black" cx="635.692" cy="-162" rx="45.4527" ry="18"/>
<text text-anchor="middle" x="635.692" y="-157.8" font-family="Times,serif" font-size="14.00">Hominina</text>
</g>
<!-- Hominini&#45;&gt;Hominina -->
<g id="edge61" class="edge"><title>Hominini&#45;&gt;Hominina</title>
<path fill="none" stroke="black" d="M635.692,-215.697C635.692,-207.983 635.692,-198.712 635.692,-190.112"/>
<polygon fill="black" stroke="black" points="639.192,-190.104 635.692,-180.104 632.192,-190.104 639.192,-190.104"/>
</g>
<!-- Boreoeutheria -->
<g id="node14" class="node"><title>Boreoeutheria</title>
<ellipse fill="none" stroke="black" cx="677.692" cy="-1026" rx="60.3942" ry="18"/>
<text text-anchor="middle" x="677.692" y="-1021.8" font-family="Times,serif" font-size="14.00">Boreoeutheria</text>
</g>
<!-- Euarchontoglires -->
<g id="node15" class="node"><title>Euarchontoglires</title>
<ellipse fill="none" stroke="black" cx="687.692" cy="-954" rx="70.534" ry="18"/>
<text text-anchor="middle" x="687.692" y="-949.8" font-family="Times,serif" font-size="14.00">Euarchontoglires</text>
</g>
<!-- Boreoeutheria&#45;&gt;Euarchontoglires -->
<g id="edge9" class="edge"><title>Boreoeutheria&#45;&gt;Euarchontoglires</title>
<path fill="none" stroke="black" d="M680.163,-1007.7C681.265,-999.983 682.59,-990.712 683.818,-982.112"/>
<polygon fill="black" stroke="black" points="687.299,-982.499 685.248,-972.104 680.369,-981.509 687.299,-982.499"/>
</g>
<!-- Euarchonta -->
<g id="node28" class="node"><title>Euarchonta</title>
<ellipse fill="none" stroke="black" cx="688.692" cy="-882" rx="50.2465" ry="18"/>
<text text-anchor="middle" x="688.692" y="-877.8" font-family="Times,serif" font-size="14.00">Euarchonta</text>
</g>
<!-- Euarchontoglires&#45;&gt;Euarchonta -->
<g id="edge17" class="edge"><title>Euarchontoglires&#45;&gt;Euarchonta</title>
<path fill="none" stroke="black" d="M687.939,-935.697C688.049,-927.983 688.181,-918.712 688.304,-910.112"/>
<polygon fill="black" stroke="black" points="691.804,-910.153 688.447,-900.104 684.805,-910.053 691.804,-910.153"/>
</g>
<!-- Gorilla -->
<g id="node17" class="node"><title>Gorilla</title>
<ellipse fill="none" stroke="black" cx="744.692" cy="-162" rx="35.3129" ry="18"/>
<text text-anchor="middle" x="744.692" y="-157.8" font-family="Times,serif" font-size="14.00">Gorilla</text>
</g>
<!-- Gorillini&#45;&gt;Gorilla -->
<g id="edge10" class="edge"><title>Gorillini&#45;&gt;Gorilla</title>
<path fill="none" stroke="black" d="M741.68,-215.697C742.121,-207.983 742.651,-198.712 743.142,-190.112"/>
<polygon fill="black" stroke="black" points="746.638,-190.288 743.714,-180.104 739.649,-189.888 746.638,-190.288"/>
</g>
<!-- Gorilla gorilla -->
<g id="node74" class="node"><title>Gorilla gorilla</title>
<ellipse fill="none" stroke="black" cx="746.692" cy="-90" rx="60.4031" ry="18"/>
<text text-anchor="middle" x="746.692" y="-85.8" font-family="Times,serif" font-size="14.00">Gorilla gorilla</text>
</g>
<!-- Gorilla&#45;&gt;Gorilla gorilla -->
<g id="edge73" class="edge"><title>Gorilla&#45;&gt;Gorilla gorilla</title>
<path fill="none" stroke="black" d="M745.186,-143.697C745.406,-135.983 745.671,-126.712 745.917,-118.112"/>
<polygon fill="black" stroke="black" points="749.416,-118.2 746.203,-108.104 742.419,-118 749.416,-118.2"/>
</g>
<!-- Gnathostomata -->
<g id="node35" class="node"><title>Gnathostomata</title>
<ellipse fill="none" stroke="black" cx="444.692" cy="-1818" rx="63.7942" ry="18"/>
<text text-anchor="middle" x="444.692" y="-1813.8" font-family="Times,serif" font-size="14.00">Gnathostomata</text>
</g>
<!-- Vertebrata&#45;&gt;Gnathostomata -->
<g id="edge21" class="edge"><title>Vertebrata&#45;&gt;Gnathostomata</title>
<path fill="none" stroke="black" d="M444.692,-1871.7C444.692,-1863.98 444.692,-1854.71 444.692,-1846.11"/>
<polygon fill="black" stroke="black" points="448.192,-1846.1 444.692,-1836.1 441.192,-1846.1 448.192,-1846.1"/>
</g>
<!-- Pan -->
<g id="node20" class="node"><title>Pan</title>
<ellipse fill="none" stroke="black" cx="503.692" cy="-90" rx="27" ry="18"/>
<text text-anchor="middle" x="503.692" y="-85.8" font-family="Times,serif" font-size="14.00">Pan</text>
</g>
<!-- Panina&#45;&gt;Pan -->
<g id="edge12" class="edge"><title>Panina&#45;&gt;Pan</title>
<path fill="none" stroke="black" d="M511.972,-143.697C510.76,-135.983 509.304,-126.712 507.952,-118.112"/>
<polygon fill="black" stroke="black" points="511.389,-117.44 506.379,-108.104 504.474,-118.526 511.389,-117.44"/>
</g>
<!-- Pan troglodytes -->
<g id="node58" class="node"><title>Pan troglodytes</title>
<ellipse fill="none" stroke="black" cx="497.692" cy="-18" rx="65.2486" ry="18"/>
<text text-anchor="middle" x="497.692" y="-13.8" font-family="Times,serif" font-size="14.00">Pan troglodytes</text>
</g>
<!-- Pan&#45;&gt;Pan troglodytes -->
<g id="edge39" class="edge"><title>Pan&#45;&gt;Pan troglodytes</title>
<path fill="none" stroke="black" d="M502.208,-71.6966C501.547,-63.9827 500.753,-54.7125 500.015,-46.1124"/>
<polygon fill="black" stroke="black" points="503.499,-45.7689 499.158,-36.1043 496.525,-46.3667 503.499,-45.7689"/>
</g>
<!-- Felidae -->
<g id="node21" class="node"><title>Felidae</title>
<ellipse fill="none" stroke="black" cx="418.692" cy="-738" rx="36.2732" ry="18"/>
<text text-anchor="middle" x="418.692" y="-733.8" font-family="Times,serif" font-size="14.00">Felidae</text>
</g>
<!-- Felinae -->
<g id="node22" class="node"><title>Felinae</title>
<ellipse fill="none" stroke="black" cx="410.692" cy="-666" rx="36.2732" ry="18"/>
<text text-anchor="middle" x="410.692" y="-661.8" font-family="Times,serif" font-size="14.00">Felinae</text>
</g>
<!-- Felidae&#45;&gt;Felinae -->
<g id="edge13" class="edge"><title>Felidae&#45;&gt;Felinae</title>
<path fill="none" stroke="black" d="M416.714,-719.697C415.832,-711.983 414.773,-702.712 413.79,-694.112"/>
<polygon fill="black" stroke="black" points="417.259,-693.642 412.646,-684.104 410.305,-694.437 417.259,-693.642"/>
</g>
<!-- Felis -->
<g id="node65" class="node"><title>Felis</title>
<ellipse fill="none" stroke="black" cx="406.692" cy="-594" rx="27.113" ry="18"/>
<text text-anchor="middle" x="406.692" y="-589.8" font-family="Times,serif" font-size="14.00">Felis</text>
</g>
<!-- Felinae&#45;&gt;Felis -->
<g id="edge56" class="edge"><title>Felinae&#45;&gt;Felis</title>
<path fill="none" stroke="black" d="M409.703,-647.697C409.262,-639.983 408.732,-630.712 408.241,-622.112"/>
<polygon fill="black" stroke="black" points="411.734,-621.888 407.669,-612.104 404.745,-622.288 411.734,-621.888"/>
</g>
<!-- Pegasoferae&#45;&gt;Perissodactyla -->
<g id="edge24" class="edge"><title>Pegasoferae&#45;&gt;Perissodactyla</title>
<path fill="none" stroke="black" d="M535.692,-1007.7C535.692,-999.983 535.692,-990.712 535.692,-982.112"/>
<polygon fill="black" stroke="black" points="539.192,-982.104 535.692,-972.104 532.192,-982.104 539.192,-982.104"/>
</g>
<!-- Deuterostomia -->
<g id="node24" class="node"><title>Deuterostomia</title>
<ellipse fill="none" stroke="black" cx="444.692" cy="-2178" rx="62.3407" ry="18"/>
<text text-anchor="middle" x="444.692" y="-2173.8" font-family="Times,serif" font-size="14.00">Deuterostomia</text>
</g>
<!-- Chordata -->
<g id="node25" class="node"><title>Chordata</title>
<ellipse fill="none" stroke="black" cx="444.692" cy="-2106" rx="42.5456" ry="18"/>
<text text-anchor="middle" x="444.692" y="-2101.8" font-family="Times,serif" font-size="14.00">Chordata</text>
</g>
<!-- Deuterostomia&#45;&gt;Chordata -->
<g id="edge15" class="edge"><title>Deuterostomia&#45;&gt;Chordata</title>
<path fill="none" stroke="black" d="M444.692,-2159.7C444.692,-2151.98 444.692,-2142.71 444.692,-2134.11"/>
<polygon fill="black" stroke="black" points="448.192,-2134.1 444.692,-2124.1 441.192,-2134.1 448.192,-2134.1"/>
</g>
<!-- Chordata&#45;&gt;Olfactores -->
<g id="edge74" class="edge"><title>Chordata&#45;&gt;Olfactores</title>
<path fill="none" stroke="black" d="M444.692,-2087.7C444.692,-2079.98 444.692,-2070.71 444.692,-2062.11"/>
<polygon fill="black" stroke="black" points="448.192,-2062.1 444.692,-2052.1 441.192,-2062.1 448.192,-2062.1"/>
</g>
<!-- Haplorrhini -->
<g id="node26" class="node"><title>Haplorrhini</title>
<ellipse fill="none" stroke="black" cx="689.692" cy="-666" rx="51.2329" ry="18"/>
<text text-anchor="middle" x="689.692" y="-661.8" font-family="Times,serif" font-size="14.00">Haplorrhini</text>
</g>
<!-- Simiiformes -->
<g id="node27" class="node"><title>Simiiformes</title>
<ellipse fill="none" stroke="black" cx="690.692" cy="-594" rx="53.6643" ry="18"/>
<text text-anchor="middle" x="690.692" y="-589.8" font-family="Times,serif" font-size="14.00">Simiiformes</text>
</g>
<!-- Haplorrhini&#45;&gt;Simiiformes -->
<g id="edge16" class="edge"><title>Haplorrhini&#45;&gt;Simiiformes</title>
<path fill="none" stroke="black" d="M689.939,-647.697C690.049,-639.983 690.181,-630.712 690.304,-622.112"/>
<polygon fill="black" stroke="black" points="693.804,-622.153 690.447,-612.104 686.805,-622.053 693.804,-622.153"/>
</g>
<!-- Catarrhini -->
<g id="node45" class="node"><title>Catarrhini</title>
<ellipse fill="none" stroke="black" cx="690.692" cy="-522" rx="45.92" ry="18"/>
<text text-anchor="middle" x="690.692" y="-517.8" font-family="Times,serif" font-size="14.00">Catarrhini</text>
</g>
<!-- Simiiformes&#45;&gt;Catarrhini -->
<g id="edge28" class="edge"><title>Simiiformes&#45;&gt;Catarrhini</title>
<path fill="none" stroke="black" d="M690.692,-575.697C690.692,-567.983 690.692,-558.712 690.692,-550.112"/>
<polygon fill="black" stroke="black" points="694.192,-550.104 690.692,-540.104 687.192,-550.104 694.192,-550.104"/>
</g>
<!-- Primatomorpha -->
<g id="node43" class="node"><title>Primatomorpha</title>
<ellipse fill="none" stroke="black" cx="689.692" cy="-810" rx="65.2477" ry="18"/>
<text text-anchor="middle" x="689.692" y="-805.8" font-family="Times,serif" font-size="14.00">Primatomorpha</text>
</g>
<!-- Euarchonta&#45;&gt;Primatomorpha -->
<g id="edge37" class="edge"><title>Euarchonta&#45;&gt;Primatomorpha</title>
<path fill="none" stroke="black" d="M688.939,-863.697C689.049,-855.983 689.181,-846.712 689.304,-838.112"/>
<polygon fill="black" stroke="black" points="692.804,-838.153 689.447,-828.104 685.805,-838.053 692.804,-838.153"/>
</g>
<!-- Trechnotheria -->
<g id="node29" class="node"><title>Trechnotheria</title>
<ellipse fill="none" stroke="black" cx="519.692" cy="-1458" rx="59.2874" ry="18"/>
<text text-anchor="middle" x="519.692" y="-1453.8" font-family="Times,serif" font-size="14.00">Trechnotheria</text>
</g>
<!-- Cladotheria -->
<g id="node30" class="node"><title>Cladotheria</title>
<ellipse fill="none" stroke="black" cx="519.692" cy="-1386" rx="51.2242" ry="18"/>
<text text-anchor="middle" x="519.692" y="-1381.8" font-family="Times,serif" font-size="14.00">Cladotheria</text>
</g>
<!-- Trechnotheria&#45;&gt;Cladotheria -->
<g id="edge18" class="edge"><title>Trechnotheria&#45;&gt;Cladotheria</title>
<path fill="none" stroke="black" d="M519.692,-1439.7C519.692,-1431.98 519.692,-1422.71 519.692,-1414.11"/>
<polygon fill="black" stroke="black" points="523.192,-1414.1 519.692,-1404.1 516.192,-1414.1 523.192,-1414.1"/>
</g>
<!-- Boreosphenida -->
<g id="node46" class="node"><title>Boreosphenida</title>
<ellipse fill="none" stroke="black" cx="519.692" cy="-1314" rx="63.3097" ry="18"/>
<text text-anchor="middle" x="519.692" y="-1309.8" font-family="Times,serif" font-size="14.00">Boreosphenida</text>
</g>
<!-- Cladotheria&#45;&gt;Boreosphenida -->
<g id="edge53" class="edge"><title>Cladotheria&#45;&gt;Boreosphenida</title>
<path fill="none" stroke="black" d="M519.692,-1367.7C519.692,-1359.98 519.692,-1350.71 519.692,-1342.11"/>
<polygon fill="black" stroke="black" points="523.192,-1342.1 519.692,-1332.1 516.192,-1342.1 523.192,-1342.1"/>
</g>
<!-- Equus -->
<g id="node31" class="node"><title>Equus</title>
<ellipse fill="none" stroke="black" cx="535.692" cy="-738" rx="32.4324" ry="18"/>
<text text-anchor="middle" x="535.692" y="-733.8" font-family="Times,serif" font-size="14.00">Equus</text>
</g>
<!-- Equus ferus -->
<g id="node32" class="node"><title>Equus ferus</title>
<ellipse fill="none" stroke="black" cx="535.692" cy="-666" rx="52.2095" ry="18"/>
<text text-anchor="middle" x="535.692" y="-661.8" font-family="Times,serif" font-size="14.00">Equus ferus</text>
</g>
<!-- Equus&#45;&gt;Equus ferus -->
<g id="edge19" class="edge"><title>Equus&#45;&gt;Equus ferus</title>
<path fill="none" stroke="black" d="M535.692,-719.697C535.692,-711.983 535.692,-702.712 535.692,-694.112"/>
<polygon fill="black" stroke="black" points="539.192,-694.104 535.692,-684.104 532.192,-694.104 539.192,-694.104"/>
</g>
<!-- Equus ferus caballus -->
<g id="node61" class="node"><title>Equus ferus caballus</title>
<ellipse fill="none" stroke="black" cx="535.692" cy="-594" rx="83.0804" ry="18"/>
<text text-anchor="middle" x="535.692" y="-589.8" font-family="Times,serif" font-size="14.00">Equus ferus caballus</text>
</g>
<!-- Equus ferus&#45;&gt;Equus ferus caballus -->
<g id="edge42" class="edge"><title>Equus ferus&#45;&gt;Equus ferus caballus</title>
<path fill="none" stroke="black" d="M535.692,-647.697C535.692,-639.983 535.692,-630.712 535.692,-622.112"/>
<polygon fill="black" stroke="black" points="539.192,-622.104 535.692,-612.104 532.192,-622.104 539.192,-622.104"/>
</g>
<!-- Monotremata -->
<g id="node34" class="node"><title>Monotremata</title>
<ellipse fill="none" stroke="black" cx="379.692" cy="-1530" rx="57.9979" ry="18"/>
<text text-anchor="middle" x="379.692" y="-1525.8" font-family="Times,serif" font-size="14.00">Monotremata</text>
</g>
<!-- Prototheria&#45;&gt;Monotremata -->
<g id="edge20" class="edge"><title>Prototheria&#45;&gt;Monotremata</title>
<path fill="none" stroke="black" d="M380.444,-1583.7C380.334,-1575.98 380.202,-1566.71 380.079,-1558.11"/>
<polygon fill="black" stroke="black" points="383.578,-1558.05 379.936,-1548.1 376.579,-1558.15 383.578,-1558.05"/>
</g>
<!-- Tachyglossidae -->
<g id="node67" class="node"><title>Tachyglossidae</title>
<ellipse fill="none" stroke="black" cx="377.692" cy="-1458" rx="64.4952" ry="18"/>
<text text-anchor="middle" x="377.692" y="-1453.8" font-family="Times,serif" font-size="14.00">Tachyglossidae</text>
</g>
<!-- Monotremata&#45;&gt;Tachyglossidae -->
<g id="edge52" class="edge"><title>Monotremata&#45;&gt;Tachyglossidae</title>
<path fill="none" stroke="black" d="M379.197,-1511.7C378.977,-1503.98 378.712,-1494.71 378.466,-1486.11"/>
<polygon fill="black" stroke="black" points="381.965,-1486 378.18,-1476.1 374.967,-1486.2 381.965,-1486"/>
</g>
<!-- Gnathostomata&#45;&gt;Tetrapoda -->
<g id="edge51" class="edge"><title>Gnathostomata&#45;&gt;Tetrapoda</title>
<path fill="none" stroke="black" d="M444.692,-1799.7C444.692,-1791.98 444.692,-1782.71 444.692,-1774.11"/>
<polygon fill="black" stroke="black" points="448.192,-1774.1 444.692,-1764.1 441.192,-1774.1 448.192,-1774.1"/>
</g>
<!-- Equinae&#45;&gt;Equus -->
<g id="edge69" class="edge"><title>Equinae&#45;&gt;Equus</title>
<path fill="none" stroke="black" d="M535.692,-791.697C535.692,-783.983 535.692,-774.712 535.692,-766.112"/>
<polygon fill="black" stroke="black" points="539.192,-766.104 535.692,-756.104 532.192,-766.104 539.192,-766.104"/>
</g>
<!-- Bovinae -->
<g id="node38" class="node"><title>Bovinae</title>
<ellipse fill="none" stroke="black" cx="63.6916" cy="-882" rx="39.6558" ry="18"/>
<text text-anchor="middle" x="63.6916" y="-877.8" font-family="Times,serif" font-size="14.00">Bovinae</text>
</g>
<!-- Bovidae&#45;&gt;Bovinae -->
<g id="edge23" class="edge"><title>Bovidae&#45;&gt;Bovinae</title>
<path fill="none" stroke="black" d="M155.971,-939.17C138.567,-928.576 114.352,-913.837 95.0945,-902.115"/>
<polygon fill="black" stroke="black" points="96.7265,-899.011 86.3647,-896.801 93.0868,-904.99 96.7265,-899.011"/>
</g>
<!-- Caprinae -->
<g id="node63" class="node"><title>Caprinae</title>
<ellipse fill="none" stroke="black" cx="178.692" cy="-882" rx="42.0524" ry="18"/>
<text text-anchor="middle" x="178.692" y="-877.8" font-family="Times,serif" font-size="14.00">Caprinae</text>
</g>
<!-- Bovidae&#45;&gt;Caprinae -->
<g id="edge44" class="edge"><title>Bovidae&#45;&gt;Caprinae</title>
<path fill="none" stroke="black" d="M178.692,-935.697C178.692,-927.983 178.692,-918.712 178.692,-910.112"/>
<polygon fill="black" stroke="black" points="182.192,-910.104 178.692,-900.104 175.192,-910.104 182.192,-910.104"/>
</g>
<!-- Bos -->
<g id="node50" class="node"><title>Bos</title>
<ellipse fill="none" stroke="black" cx="55.6916" cy="-810" rx="27" ry="18"/>
<text text-anchor="middle" x="55.6916" y="-805.8" font-family="Times,serif" font-size="14.00">Bos</text>
</g>
<!-- Bovinae&#45;&gt;Bos -->
<g id="edge48" class="edge"><title>Bovinae&#45;&gt;Bos</title>
<path fill="none" stroke="black" d="M61.714,-863.697C60.8324,-855.983 59.773,-846.712 58.7901,-838.112"/>
<polygon fill="black" stroke="black" points="62.2592,-837.642 57.6463,-828.104 55.3045,-838.437 62.2592,-837.642"/>
</g>
<!-- Carnivora -->
<g id="node40" class="node"><title>Carnivora</title>
<ellipse fill="none" stroke="black" cx="419.692" cy="-882" rx="45.4355" ry="18"/>
<text text-anchor="middle" x="419.692" y="-877.8" font-family="Times,serif" font-size="14.00">Carnivora</text>
</g>
<!-- Ferae&#45;&gt;Carnivora -->
<g id="edge25" class="edge"><title>Ferae&#45;&gt;Carnivora</title>
<path fill="none" stroke="black" d="M419.692,-935.697C419.692,-927.983 419.692,-918.712 419.692,-910.112"/>
<polygon fill="black" stroke="black" points="423.192,-910.104 419.692,-900.104 416.192,-910.104 423.192,-910.104"/>
</g>
<!-- Caniformia -->
<g id="node48" class="node"><title>Caniformia</title>
<ellipse fill="none" stroke="black" cx="306.692" cy="-810" rx="50.2637" ry="18"/>
<text text-anchor="middle" x="306.692" y="-805.8" font-family="Times,serif" font-size="14.00">Caniformia</text>
</g>
<!-- Carnivora&#45;&gt;Caniformia -->
<g id="edge31" class="edge"><title>Carnivora&#45;&gt;Caniformia</title>
<path fill="none" stroke="black" d="M396.278,-866.496C379.834,-856.309 357.616,-842.546 339.421,-831.275"/>
<polygon fill="black" stroke="black" points="341.199,-828.259 330.855,-825.968 337.513,-834.21 341.199,-828.259"/>
</g>
<!-- Feliformia -->
<g id="node66" class="node"><title>Feliformia</title>
<ellipse fill="none" stroke="black" cx="422.692" cy="-810" rx="47.3736" ry="18"/>
<text text-anchor="middle" x="422.692" y="-805.8" font-family="Times,serif" font-size="14.00">Feliformia</text>
</g>
<!-- Carnivora&#45;&gt;Feliformia -->
<g id="edge58" class="edge"><title>Carnivora&#45;&gt;Feliformia</title>
<path fill="none" stroke="black" d="M420.433,-863.697C420.764,-855.983 421.161,-846.712 421.53,-838.112"/>
<polygon fill="black" stroke="black" points="425.027,-838.245 421.959,-828.104 418.033,-837.945 425.027,-838.245"/>
</g>
<!-- Felis silvestris -->
<g id="node41" class="node"><title>Felis silvestris</title>
<ellipse fill="none" stroke="black" cx="406.692" cy="-522" rx="60.9222" ry="18"/>
<text text-anchor="middle" x="406.692" y="-517.8" font-family="Times,serif" font-size="14.00">Felis silvestris</text>
</g>
<!-- Felis silvestris catus -->
<g id="node42" class="node"><title>Felis silvestris catus</title>
<ellipse fill="none" stroke="black" cx="406.692" cy="-450" rx="81.1853" ry="18"/>
<text text-anchor="middle" x="406.692" y="-445.8" font-family="Times,serif" font-size="14.00">Felis silvestris catus</text>
</g>
<!-- Felis silvestris&#45;&gt;Felis silvestris catus -->
<g id="edge26" class="edge"><title>Felis silvestris&#45;&gt;Felis silvestris catus</title>
<path fill="none" stroke="black" d="M406.692,-503.697C406.692,-495.983 406.692,-486.712 406.692,-478.112"/>
<polygon fill="black" stroke="black" points="410.192,-478.104 406.692,-468.104 403.192,-478.104 410.192,-478.104"/>
</g>
<!-- Primates -->
<g id="node44" class="node"><title>Primates</title>
<ellipse fill="none" stroke="black" cx="689.692" cy="-738" rx="41.1093" ry="18"/>
<text text-anchor="middle" x="689.692" y="-733.8" font-family="Times,serif" font-size="14.00">Primates</text>
</g>
<!-- Primatomorpha&#45;&gt;Primates -->
<g id="edge27" class="edge"><title>Primatomorpha&#45;&gt;Primates</title>
<path fill="none" stroke="black" d="M689.692,-791.697C689.692,-783.983 689.692,-774.712 689.692,-766.112"/>
<polygon fill="black" stroke="black" points="693.192,-766.104 689.692,-756.104 686.192,-766.104 693.192,-766.104"/>
</g>
<!-- Primates&#45;&gt;Haplorrhini -->
<g id="edge45" class="edge"><title>Primates&#45;&gt;Haplorrhini</title>
<path fill="none" stroke="black" d="M689.692,-719.697C689.692,-711.983 689.692,-702.712 689.692,-694.112"/>
<polygon fill="black" stroke="black" points="693.192,-694.104 689.692,-684.104 686.192,-694.104 693.192,-694.104"/>
</g>
<!-- Hominoidea -->
<g id="node68" class="node"><title>Hominoidea</title>
<ellipse fill="none" stroke="black" cx="690.692" cy="-450" rx="53.6471" ry="18"/>
<text text-anchor="middle" x="690.692" y="-445.8" font-family="Times,serif" font-size="14.00">Hominoidea</text>
</g>
<!-- Catarrhini&#45;&gt;Hominoidea -->
<g id="edge67" class="edge"><title>Catarrhini&#45;&gt;Hominoidea</title>
<path fill="none" stroke="black" d="M690.692,-503.697C690.692,-495.983 690.692,-486.712 690.692,-478.112"/>
<polygon fill="black" stroke="black" points="694.192,-478.104 690.692,-468.104 687.192,-478.104 694.192,-478.104"/>
</g>
<!-- Theria -->
<g id="node47" class="node"><title>Theria</title>
<ellipse fill="none" stroke="black" cx="519.692" cy="-1242" rx="33.3665" ry="18"/>
<text text-anchor="middle" x="519.692" y="-1237.8" font-family="Times,serif" font-size="14.00">Theria</text>
</g>
<!-- Boreosphenida&#45;&gt;Theria -->
<g id="edge29" class="edge"><title>Boreosphenida&#45;&gt;Theria</title>
<path fill="none" stroke="black" d="M519.692,-1295.7C519.692,-1287.98 519.692,-1278.71 519.692,-1270.11"/>
<polygon fill="black" stroke="black" points="523.192,-1270.1 519.692,-1260.1 516.192,-1270.1 523.192,-1270.1"/>
</g>
<!-- Theria&#45;&gt;Eutheria -->
<g id="edge40" class="edge"><title>Theria&#45;&gt;Eutheria</title>
<path fill="none" stroke="black" d="M519.692,-1223.7C519.692,-1215.98 519.692,-1206.71 519.692,-1198.11"/>
<polygon fill="black" stroke="black" points="523.192,-1198.1 519.692,-1188.1 516.192,-1198.1 523.192,-1198.1"/>
</g>
<!-- Canidae -->
<g id="node69" class="node"><title>Canidae</title>
<ellipse fill="none" stroke="black" cx="307.692" cy="-738" rx="39.1627" ry="18"/>
<text text-anchor="middle" x="307.692" y="-733.8" font-family="Times,serif" font-size="14.00">Canidae</text>
</g>
<!-- Caniformia&#45;&gt;Canidae -->
<g id="edge70" class="edge"><title>Caniformia&#45;&gt;Canidae</title>
<path fill="none" stroke="black" d="M306.939,-791.697C307.049,-783.983 307.181,-774.712 307.304,-766.112"/>
<polygon fill="black" stroke="black" points="310.804,-766.153 307.447,-756.104 303.805,-766.053 310.804,-766.153"/>
</g>
<!-- Exafroplacentalia&#45;&gt;Boreoeutheria -->
<g id="edge32" class="edge"><title>Exafroplacentalia&#45;&gt;Boreoeutheria</title>
<path fill="none" stroke="black" d="M658.743,-1080.05C661.557,-1072.18 664.971,-1062.62 668.122,-1053.79"/>
<polygon fill="black" stroke="black" points="671.454,-1054.87 671.522,-1044.28 664.862,-1052.52 671.454,-1054.87"/>
</g>
<!-- Bos taurus -->
<g id="node51" class="node"><title>Bos taurus</title>
<ellipse fill="none" stroke="black" cx="47.6916" cy="-738" rx="47.8839" ry="18"/>
<text text-anchor="middle" x="47.6916" y="-733.8" font-family="Times,serif" font-size="14.00">Bos taurus</text>
</g>
<!-- Bos&#45;&gt;Bos taurus -->
<g id="edge33" class="edge"><title>Bos&#45;&gt;Bos taurus</title>
<path fill="none" stroke="black" d="M53.714,-791.697C52.8324,-783.983 51.773,-774.712 50.7901,-766.112"/>
<polygon fill="black" stroke="black" points="54.2592,-765.642 49.6463,-756.104 47.3045,-766.437 54.2592,-765.642"/>
</g>
<!-- Animalia -->
<g id="node52" class="node"><title>Animalia</title>
<ellipse fill="none" stroke="black" cx="444.692" cy="-2322" rx="43.0301" ry="18"/>
<text text-anchor="middle" x="444.692" y="-2317.8" font-family="Times,serif" font-size="14.00">Animalia</text>
</g>
<!-- Bilateria -->
<g id="node53" class="node"><title>Bilateria</title>
<ellipse fill="none" stroke="black" cx="444.692" cy="-2250" rx="40.6075" ry="18"/>
<text text-anchor="middle" x="444.692" y="-2245.8" font-family="Times,serif" font-size="14.00">Bilateria</text>
</g>
<!-- Animalia&#45;&gt;Bilateria -->
<g id="edge34" class="edge"><title>Animalia&#45;&gt;Bilateria</title>
<path fill="none" stroke="black" d="M444.692,-2303.7C444.692,-2295.98 444.692,-2286.71 444.692,-2278.11"/>
<polygon fill="black" stroke="black" points="448.192,-2278.1 444.692,-2268.1 441.192,-2278.1 448.192,-2278.1"/>
</g>
<!-- Bilateria&#45;&gt;Deuterostomia -->
<g id="edge64" class="edge"><title>Bilateria&#45;&gt;Deuterostomia</title>
<path fill="none" stroke="black" d="M444.692,-2231.7C444.692,-2223.98 444.692,-2214.71 444.692,-2206.11"/>
<polygon fill="black" stroke="black" points="448.192,-2206.1 444.692,-2196.1 441.192,-2206.1 448.192,-2206.1"/>
</g>
<!-- Theriiformes -->
<g id="node55" class="node"><title>Theriiformes</title>
<ellipse fill="none" stroke="black" cx="516.692" cy="-1530" rx="56.0441" ry="18"/>
<text text-anchor="middle" x="516.692" y="-1525.8" font-family="Times,serif" font-size="14.00">Theriiformes</text>
</g>
<!-- Theriamorpha&#45;&gt;Theriiformes -->
<g id="edge35" class="edge"><title>Theriamorpha&#45;&gt;Theriiformes</title>
<path fill="none" stroke="black" d="M512.175,-1583.7C512.836,-1575.98 513.63,-1566.71 514.368,-1558.11"/>
<polygon fill="black" stroke="black" points="517.859,-1558.37 515.225,-1548.1 510.884,-1557.77 517.859,-1558.37"/>
</g>
<!-- Theriiformes&#45;&gt;Trechnotheria -->
<g id="edge71" class="edge"><title>Theriiformes&#45;&gt;Trechnotheria</title>
<path fill="none" stroke="black" d="M517.433,-1511.7C517.764,-1503.98 518.161,-1494.71 518.53,-1486.11"/>
<polygon fill="black" stroke="black" points="522.027,-1486.25 518.959,-1476.1 515.033,-1485.95 522.027,-1486.25"/>
</g>
<!-- Homo -->
<g id="node57" class="node"><title>Homo</title>
<ellipse fill="none" stroke="black" cx="635.692" cy="-90" rx="32.4324" ry="18"/>
<text text-anchor="middle" x="635.692" y="-85.8" font-family="Times,serif" font-size="14.00">Homo</text>
</g>
<!-- Hominina&#45;&gt;Homo -->
<g id="edge38" class="edge"><title>Hominina&#45;&gt;Homo</title>
<path fill="none" stroke="black" d="M635.692,-143.697C635.692,-135.983 635.692,-126.712 635.692,-118.112"/>
<polygon fill="black" stroke="black" points="639.192,-118.104 635.692,-108.104 632.192,-118.104 639.192,-118.104"/>
</g>
<!-- Homo sapiens -->
<g id="node73" class="node"><title>Homo sapiens</title>
<ellipse fill="none" stroke="black" cx="641.692" cy="-18" rx="60.4204" ry="18"/>
<text text-anchor="middle" x="641.692" y="-13.8" font-family="Times,serif" font-size="14.00">Homo sapiens</text>
</g>
<!-- Homo&#45;&gt;Homo sapiens -->
<g id="edge65" class="edge"><title>Homo&#45;&gt;Homo sapiens</title>
<path fill="none" stroke="black" d="M637.175,-71.6966C637.836,-63.9827 638.63,-54.7125 639.368,-46.1124"/>
<polygon fill="black" stroke="black" points="642.859,-46.3667 640.225,-36.1043 635.884,-45.7689 642.859,-46.3667"/>
</g>
<!-- Capra -->
<g id="node59" class="node"><title>Capra</title>
<ellipse fill="none" stroke="black" cx="178.692" cy="-810" rx="31.4462" ry="18"/>
<text text-anchor="middle" x="178.692" y="-805.8" font-family="Times,serif" font-size="14.00">Capra</text>
</g>
<!-- Capra aegagrus -->
<g id="node60" class="node"><title>Capra aegagrus</title>
<ellipse fill="none" stroke="black" cx="178.692" cy="-738" rx="64.7209" ry="18"/>
<text text-anchor="middle" x="178.692" y="-733.8" font-family="Times,serif" font-size="14.00">Capra aegagrus</text>
</g>
<!-- Capra&#45;&gt;Capra aegagrus -->
<g id="edge41" class="edge"><title>Capra&#45;&gt;Capra aegagrus</title>
<path fill="none" stroke="black" d="M178.692,-791.697C178.692,-783.983 178.692,-774.712 178.692,-766.112"/>
<polygon fill="black" stroke="black" points="182.192,-766.104 178.692,-756.104 175.192,-766.104 182.192,-766.104"/>
</g>
<!-- Capra aegagrus hircus -->
<g id="node62" class="node"><title>Capra aegagrus hircus</title>
<ellipse fill="none" stroke="black" cx="171.692" cy="-666" rx="88.8669" ry="18"/>
<text text-anchor="middle" x="171.692" y="-661.8" font-family="Times,serif" font-size="14.00">Capra aegagrus hircus</text>
</g>
<!-- Capra aegagrus&#45;&gt;Capra aegagrus hircus -->
<g id="edge43" class="edge"><title>Capra aegagrus&#45;&gt;Capra aegagrus hircus</title>
<path fill="none" stroke="black" d="M176.961,-719.697C176.19,-711.983 175.263,-702.712 174.403,-694.112"/>
<polygon fill="black" stroke="black" points="177.88,-693.706 173.402,-684.104 170.914,-694.403 177.88,-693.706"/>
</g>
<!-- Caprinae&#45;&gt;Capra -->
<g id="edge72" class="edge"><title>Caprinae&#45;&gt;Capra</title>
<path fill="none" stroke="black" d="M178.692,-863.697C178.692,-855.983 178.692,-846.712 178.692,-838.112"/>
<polygon fill="black" stroke="black" points="182.192,-838.104 178.692,-828.104 175.192,-838.104 182.192,-838.104"/>
</g>
<!-- Eukaryota -->
<g id="node64" class="node"><title>Eukaryota</title>
<ellipse fill="none" stroke="black" cx="444.692" cy="-2394" rx="46.3959" ry="18"/>
<text text-anchor="middle" x="444.692" y="-2389.8" font-family="Times,serif" font-size="14.00">Eukaryota</text>
</g>
<!-- Eukaryota&#45;&gt;Animalia -->
<g id="edge46" class="edge"><title>Eukaryota&#45;&gt;Animalia</title>
<path fill="none" stroke="black" d="M444.692,-2375.7C444.692,-2367.98 444.692,-2358.71 444.692,-2350.11"/>
<polygon fill="black" stroke="black" points="448.192,-2350.1 444.692,-2340.1 441.192,-2350.1 448.192,-2350.1"/>
</g>
<!-- Felis&#45;&gt;Felis silvestris -->
<g id="edge49" class="edge"><title>Felis&#45;&gt;Felis silvestris</title>
<path fill="none" stroke="black" d="M406.692,-575.697C406.692,-567.983 406.692,-558.712 406.692,-550.112"/>
<polygon fill="black" stroke="black" points="410.192,-550.104 406.692,-540.104 403.192,-550.104 410.192,-550.104"/>
</g>
<!-- Feliformia&#45;&gt;Felidae -->
<g id="edge50" class="edge"><title>Feliformia&#45;&gt;Felidae</title>
<path fill="none" stroke="black" d="M421.703,-791.697C421.262,-783.983 420.732,-774.712 420.241,-766.112"/>
<polygon fill="black" stroke="black" points="423.734,-765.888 419.669,-756.104 416.745,-766.288 423.734,-765.888"/>
</g>
<!-- Hominoidea&#45;&gt;Hominidae -->
<g id="edge54" class="edge"><title>Hominoidea&#45;&gt;Hominidae</title>
<path fill="none" stroke="black" d="M690.692,-431.697C690.692,-423.983 690.692,-414.712 690.692,-406.112"/>
<polygon fill="black" stroke="black" points="694.192,-406.104 690.692,-396.104 687.192,-406.104 694.192,-406.104"/>
</g>
<!-- Canis -->
<g id="node70" class="node"><title>Canis</title>
<ellipse fill="none" stroke="black" cx="308.692" cy="-666" rx="30.0035" ry="18"/>
<text text-anchor="middle" x="308.692" y="-661.8" font-family="Times,serif" font-size="14.00">Canis</text>
</g>
<!-- Canidae&#45;&gt;Canis -->
<g id="edge57" class="edge"><title>Canidae&#45;&gt;Canis</title>
<path fill="none" stroke="black" d="M307.939,-719.697C308.049,-711.983 308.181,-702.712 308.304,-694.112"/>
<polygon fill="black" stroke="black" points="311.804,-694.153 308.447,-684.104 304.805,-694.053 311.804,-694.153"/>
</g>
<!-- Canis lupus -->
<g id="node72" class="node"><title>Canis lupus</title>
<ellipse fill="none" stroke="black" cx="308.692" cy="-594" rx="51.751" ry="18"/>
<text text-anchor="middle" x="308.692" y="-589.8" font-family="Times,serif" font-size="14.00">Canis lupus</text>
</g>
<!-- Canis&#45;&gt;Canis lupus -->
<g id="edge62" class="edge"><title>Canis&#45;&gt;Canis lupus</title>
<path fill="none" stroke="black" d="M308.692,-647.697C308.692,-639.983 308.692,-630.712 308.692,-622.112"/>
<polygon fill="black" stroke="black" points="312.192,-622.104 308.692,-612.104 305.192,-622.104 312.192,-622.104"/>
</g>
<!-- Biota -->
<g id="node71" class="node"><title>Biota</title>
<ellipse fill="none" stroke="black" cx="444.692" cy="-2466" rx="29.0343" ry="18"/>
<text text-anchor="middle" x="444.692" y="-2461.8" font-family="Times,serif" font-size="14.00">Biota</text>
</g>
<!-- Biota&#45;&gt;Eukaryota -->
<g id="edge59" class="edge"><title>Biota&#45;&gt;Eukaryota</title>
<path fill="none" stroke="black" d="M444.692,-2447.7C444.692,-2439.98 444.692,-2430.71 444.692,-2422.11"/>
<polygon fill="black" stroke="black" points="448.192,-2422.1 444.692,-2412.1 441.192,-2422.1 448.192,-2422.1"/>
</g>
</g>
</svg>
